<?xml version="1.0" encoding="UTF-8"?>
<!--Generator: Apple Native CoreSVG 123-->
<!DOCTYPE svg
PUBLIC "-//W3C//DTD SVG 1.1//EN"
       "http://www.w3.org/Graphics/SVG/1.1/DTD/svg11.dtd">
<svg version="1.1" xmlns="http://www.w3.org/2000/svg" xmlns:xlink="http://www.w3.org/1999/xlink" width="3300" height="2200">
 <!--glyph: "uni10025A.medium", point size: 100.000000, font version: "Version 15.0d7e11", template writer version: "5"-->
 <g id="Notes">
  <rect height="2200" id="artboard" style="fill:white;opacity:1" width="3300" x="0" y="0"/>
  <line id="" style="fill:none;stroke:black;opacity:1;stroke-width:0.5;" x1="263" x2="3036" y1="292" y2="292"/>
  <text style="stroke:none;fill:black;font-family:-apple-system,&quot;SF Pro Display&quot;,&quot;SF Pro Text&quot;,Helvetica,sans-serif;font-weight:bold;" transform="matrix(1 0 0 1 263 322)">Weight/Scale Variations</text>
  <text style="stroke:none;fill:black;font-family:-apple-system,&quot;SF Pro Display&quot;,&quot;SF Pro Text&quot;,Helvetica,sans-serif;text-anchor:middle;" transform="matrix(1 0 0 1 559.711 322)">Ultralight</text>
  <text style="stroke:none;fill:black;font-family:-apple-system,&quot;SF Pro Display&quot;,&quot;SF Pro Text&quot;,Helvetica,sans-serif;text-anchor:middle;" transform="matrix(1 0 0 1 856.422 322)">Thin</text>
  <text style="stroke:none;fill:black;font-family:-apple-system,&quot;SF Pro Display&quot;,&quot;SF Pro Text&quot;,Helvetica,sans-serif;text-anchor:middle;" transform="matrix(1 0 0 1 1153.13 322)">Light</text>
  <text style="stroke:none;fill:black;font-family:-apple-system,&quot;SF Pro Display&quot;,&quot;SF Pro Text&quot;,Helvetica,sans-serif;text-anchor:middle;" transform="matrix(1 0 0 1 1449.84 322)">Regular</text>
  <text style="stroke:none;fill:black;font-family:-apple-system,&quot;SF Pro Display&quot;,&quot;SF Pro Text&quot;,Helvetica,sans-serif;text-anchor:middle;" transform="matrix(1 0 0 1 1746.56 322)">Medium</text>
  <text style="stroke:none;fill:black;font-family:-apple-system,&quot;SF Pro Display&quot;,&quot;SF Pro Text&quot;,Helvetica,sans-serif;text-anchor:middle;" transform="matrix(1 0 0 1 2043.27 322)">Semibold</text>
  <text style="stroke:none;fill:black;font-family:-apple-system,&quot;SF Pro Display&quot;,&quot;SF Pro Text&quot;,Helvetica,sans-serif;text-anchor:middle;" transform="matrix(1 0 0 1 2339.98 322)">Bold</text>
  <text style="stroke:none;fill:black;font-family:-apple-system,&quot;SF Pro Display&quot;,&quot;SF Pro Text&quot;,Helvetica,sans-serif;text-anchor:middle;" transform="matrix(1 0 0 1 2636.69 322)">Heavy</text>
  <text style="stroke:none;fill:black;font-family:-apple-system,&quot;SF Pro Display&quot;,&quot;SF Pro Text&quot;,Helvetica,sans-serif;text-anchor:middle;" transform="matrix(1 0 0 1 2933.4 322)">Black</text>
  <line id="" style="fill:none;stroke:black;opacity:1;stroke-width:0.5;" x1="263" x2="3036" y1="1903" y2="1903"/>
  <g id="" transform="matrix(1 0 0 1 263 1933)">
   <path d="M 9.24805 0.830078 C 13.5547 0.830078 17.1387 -2.74414 17.1387 -7.05078 C 17.1387 -11.3574 13.5449 -14.9316 9.23828 -14.9316 C 4.94141 -14.9316 1.36719 -11.3574 1.36719 -7.05078 C 1.36719 -2.74414 4.95117 0.830078 9.24805 0.830078 Z M 9.24805 -0.654297 C 5.70312 -0.654297 2.87109 -3.49609 2.87109 -7.05078 C 2.87109 -10.6055 5.69336 -13.4473 9.23828 -13.4473 C 12.793 -13.4473 15.6348 -10.6055 15.6445 -7.05078 C 15.6543 -3.49609 12.8027 -0.654297 9.24805 -0.654297 Z M 9.22852 -3.42773 C 9.69727 -3.42773 9.9707 -3.74023 9.9707 -4.25781 L 9.9707 -6.31836 L 12.1973 -6.31836 C 12.6953 -6.31836 13.0371 -6.57227 13.0371 -7.04102 C 13.0371 -7.51953 12.7148 -7.7832 12.1973 -7.7832 L 9.9707 -7.7832 L 9.9707 -10.0098 C 9.9707 -10.5273 9.69727 -10.8496 9.22852 -10.8496 C 8.75977 -10.8496 8.50586 -10.5078 8.50586 -10.0098 L 8.50586 -7.7832 L 6.29883 -7.7832 C 5.78125 -7.7832 5.44922 -7.51953 5.44922 -7.04102 C 5.44922 -6.57227 5.80078 -6.31836 6.29883 -6.31836 L 8.50586 -6.31836 L 8.50586 -4.25781 C 8.50586 -3.75977 8.75977 -3.42773 9.22852 -3.42773 Z"/>
  </g>
  <g id="" transform="matrix(1 0 0 1 281.506 1933)">
   <path d="M 11.709 2.91016 C 17.1582 2.91016 21.6699 -1.60156 21.6699 -7.05078 C 21.6699 -12.4902 17.1484 -17.0117 11.6992 -17.0117 C 6.25977 -17.0117 1.74805 -12.4902 1.74805 -7.05078 C 1.74805 -1.60156 6.26953 2.91016 11.709 2.91016 Z M 11.709 1.25 C 7.09961 1.25 3.41797 -2.44141 3.41797 -7.05078 C 3.41797 -11.6504 7.08984 -15.3516 11.6992 -15.3516 C 16.3086 -15.3516 20 -11.6504 20.0098 -7.05078 C 20.0195 -2.44141 16.3184 1.25 11.709 1.25 Z M 11.6895 -2.41211 C 12.207 -2.41211 12.5195 -2.77344 12.5195 -3.33984 L 12.5195 -6.23047 L 15.5762 -6.23047 C 16.123 -6.23047 16.5039 -6.51367 16.5039 -7.03125 C 16.5039 -7.55859 16.1426 -7.86133 15.5762 -7.86133 L 12.5195 -7.86133 L 12.5195 -10.9277 C 12.5195 -11.5039 12.207 -11.8555 11.6895 -11.8555 C 11.1719 -11.8555 10.8789 -11.4844 10.8789 -10.9277 L 10.8789 -7.86133 L 7.83203 -7.86133 C 7.26562 -7.86133 6.89453 -7.55859 6.89453 -7.03125 C 6.89453 -6.51367 7.28516 -6.23047 7.83203 -6.23047 L 10.8789 -6.23047 L 10.8789 -3.33984 C 10.8789 -2.79297 11.1719 -2.41211 11.6895 -2.41211 Z"/>
  </g>
  <g id="" transform="matrix(1 0 0 1 304.924 1933)">
   <path d="M 14.9707 5.67383 C 21.9336 5.67383 27.6953 -0.078125 27.6953 -7.04102 C 27.6953 -14.0039 21.9238 -19.7559 14.9609 -19.7559 C 8.00781 -19.7559 2.25586 -14.0039 2.25586 -7.04102 C 2.25586 -0.078125 8.01758 5.67383 14.9707 5.67383 Z M 14.9707 3.85742 C 8.93555 3.85742 4.08203 -1.00586 4.08203 -7.04102 C 4.08203 -13.0762 8.92578 -17.9395 14.9609 -17.9395 C 21.0059 -17.9395 25.8594 -13.0762 25.8691 -7.04102 C 25.8789 -1.00586 21.0156 3.85742 14.9707 3.85742 Z M 14.9512 -1.06445 C 15.5176 -1.06445 15.8691 -1.45508 15.8691 -2.06055 L 15.8691 -6.13281 L 20.1074 -6.13281 C 20.6934 -6.13281 21.1133 -6.46484 21.1133 -7.02148 C 21.1133 -7.59766 20.7227 -7.93945 20.1074 -7.93945 L 15.8691 -7.93945 L 15.8691 -12.1875 C 15.8691 -12.8027 15.5176 -13.1934 14.9512 -13.1934 C 14.3848 -13.1934 14.0625 -12.7832 14.0625 -12.1875 L 14.0625 -7.93945 L 9.83398 -7.93945 C 9.21875 -7.93945 8.80859 -7.59766 8.80859 -7.02148 C 8.80859 -6.46484 9.23828 -6.13281 9.83398 -6.13281 L 14.0625 -6.13281 L 14.0625 -2.06055 C 14.0625 -1.47461 14.3848 -1.06445 14.9512 -1.06445 Z"/>
  </g>
  <text style="stroke:none;fill:black;font-family:-apple-system,&quot;SF Pro Display&quot;,&quot;SF Pro Text&quot;,Helvetica,sans-serif;font-weight:bold;" transform="matrix(1 0 0 1 263 1953)">Design Variations</text>
  <text style="stroke:none;fill:black;font-family:-apple-system,&quot;SF Pro Display&quot;,&quot;SF Pro Text&quot;,Helvetica,sans-serif;" transform="matrix(1 0 0 1 263 1971)">Symbols are supported in up to nine weights and three scales.</text>
  <text style="stroke:none;fill:black;font-family:-apple-system,&quot;SF Pro Display&quot;,&quot;SF Pro Text&quot;,Helvetica,sans-serif;" transform="matrix(1 0 0 1 263 1989)">For optimal layout with text and other symbols, vertically align</text>
  <text style="stroke:none;fill:black;font-family:-apple-system,&quot;SF Pro Display&quot;,&quot;SF Pro Text&quot;,Helvetica,sans-serif;" transform="matrix(1 0 0 1 263 2007)">symbols with the adjacent text.</text>
  <rect height="14" id="" style="fill:#00AEEF;stroke:none;opacity:0.4;" width="3" x="776" y="1919"/>
  <g id="" transform="matrix(1 0 0 1 779 1933)">
   <path d="M 10.5273 0 L 12.373 0 L 7.17773 -14.0918 L 5.43945 -14.0918 L 0.244141 0 L 2.08984 0 L 3.50586 -4.0332 L 9.11133 -4.0332 Z M 6.2793 -11.9531 L 6.33789 -11.9531 L 8.59375 -5.52734 L 4.02344 -5.52734 Z"/>
  </g>
  <rect height="14" id="" style="fill:#00AEEF;stroke:none;opacity:0.4;" width="3" x="791.617" y="1919"/>
  <text style="stroke:none;fill:black;font-family:-apple-system,&quot;SF Pro Display&quot;,&quot;SF Pro Text&quot;,Helvetica,sans-serif;font-weight:bold;" transform="matrix(1 0 0 1 776 1953)">Margins</text>
  <text style="stroke:none;fill:black;font-family:-apple-system,&quot;SF Pro Display&quot;,&quot;SF Pro Text&quot;,Helvetica,sans-serif;" transform="matrix(1 0 0 1 776 1971)">Leading and trailing margins on the left and right side of each symbol</text>
  <text style="stroke:none;fill:black;font-family:-apple-system,&quot;SF Pro Display&quot;,&quot;SF Pro Text&quot;,Helvetica,sans-serif;" transform="matrix(1 0 0 1 776 1989)">can be adjusted by modifying the width of the blue rectangles.</text>
  <text style="stroke:none;fill:black;font-family:-apple-system,&quot;SF Pro Display&quot;,&quot;SF Pro Text&quot;,Helvetica,sans-serif;" transform="matrix(1 0 0 1 776 2007)">Modifications are automatically applied proportionally to all</text>
  <text style="stroke:none;fill:black;font-family:-apple-system,&quot;SF Pro Display&quot;,&quot;SF Pro Text&quot;,Helvetica,sans-serif;" transform="matrix(1 0 0 1 776 2025)">scales and weights.</text>
  <g id="" transform="matrix(1 0 0 1 1289 1933)">
   <path d="M 2.83203 3.11523 L 4.375 4.6582 C 5.22461 5.48828 6.19141 5.41992 7.06055 4.46289 L 17.2754 -6.66016 C 17.7051 -6.36719 18.0957 -6.37695 18.5645 -6.47461 L 19.6094 -6.68945 L 20.3027 -5.99609 L 20.2539 -5.47852 C 20.1855 -4.95117 20.3516 -4.53125 20.8496 -4.0332 L 21.6602 -3.22266 C 22.168 -2.71484 22.8223 -2.68555 23.3008 -3.16406 L 26.5527 -6.41602 C 27.0312 -6.89453 27.0117 -7.54883 26.5039 -8.05664 L 25.6836 -8.87695 C 25.1855 -9.375 24.7754 -9.55078 24.2383 -9.47266 L 23.7109 -9.41406 L 23.0566 -10.0781 L 23.3398 -11.2207 C 23.4863 -11.7871 23.3398 -12.2559 22.7148 -12.8613 L 20.3027 -15.2539 C 16.7578 -18.7793 12.2266 -18.6719 9.11133 -15.5371 C 8.69141 -15.1074 8.64258 -14.5215 8.91602 -14.0918 C 9.15039 -13.7207 9.62891 -13.4961 10.2734 -13.6621 C 11.7871 -14.043 13.3008 -13.9258 14.7852 -12.9199 L 14.1602 -11.3379 C 13.9258 -10.752 13.9453 -10.2734 14.1797 -9.83398 L 3.01758 0.439453 C 2.08008 1.30859 1.97266 2.25586 2.83203 3.11523 Z M 10.6738 -15.1465 C 13.3398 -17.1387 16.6504 -16.8262 19.0527 -14.4141 L 21.6797 -11.8066 C 21.9141 -11.5723 21.9434 -11.3867 21.8848 -11.0938 L 21.5039 -9.53125 L 23.0762 -7.95898 L 24.043 -8.04688 C 24.3262 -8.07617 24.4141 -8.05664 24.6387 -7.83203 L 25.2637 -7.20703 L 22.5098 -4.46289 L 21.8848 -5.07812 C 21.6602 -5.30273 21.6406 -5.40039 21.6699 -5.68359 L 21.7578 -6.64062 L 20.1953 -8.20312 L 18.5742 -7.89062 C 18.291 -7.83203 18.1445 -7.83203 17.9102 -8.07617 L 15.7324 -10.2539 C 15.5078 -10.4883 15.4785 -10.625 15.6055 -10.9473 L 16.5527 -13.2227 C 14.9512 -14.7559 12.8418 -15.6055 10.8008 -14.9512 C 10.7129 -14.9219 10.6445 -14.9414 10.6152 -14.9805 C 10.5859 -15.0293 10.5859 -15.0781 10.6738 -15.1465 Z M 4.10156 2.41211 C 3.61328 1.91406 3.78906 1.61133 4.12109 1.30859 L 15.0781 -8.80859 L 16.3086 -7.57812 L 6.15234 3.34961 C 5.84961 3.68164 5.46875 3.7793 5.06836 3.37891 Z"/>
  </g>
  <text style="stroke:none;fill:black;font-family:-apple-system,&quot;SF Pro Display&quot;,&quot;SF Pro Text&quot;,Helvetica,sans-serif;font-weight:bold;" transform="matrix(1 0 0 1 1289 1953)">Exporting</text>
  <text style="stroke:none;fill:black;font-family:-apple-system,&quot;SF Pro Display&quot;,&quot;SF Pro Text&quot;,Helvetica,sans-serif;" transform="matrix(1 0 0 1 1289 1971)">Symbols should be outlined when exporting to ensure the</text>
  <text style="stroke:none;fill:black;font-family:-apple-system,&quot;SF Pro Display&quot;,&quot;SF Pro Text&quot;,Helvetica,sans-serif;" transform="matrix(1 0 0 1 1289 1989)">design is preserved when submitting to Xcode.</text>
  <text id="template-version" style="stroke:none;fill:black;font-family:-apple-system,&quot;SF Pro Display&quot;,&quot;SF Pro Text&quot;,Helvetica,sans-serif;text-anchor:end;" transform="matrix(1 0 0 1 3036 1933)">Template v.1.0</text>
  <text style="stroke:none;fill:black;font-family:-apple-system,&quot;SF Pro Display&quot;,&quot;SF Pro Text&quot;,Helvetica,sans-serif;text-anchor:end;" transform="matrix(1 0 0 1 3036 1951)">Generated from book</text>
  <text style="stroke:none;fill:black;font-family:-apple-system,&quot;SF Pro Display&quot;,&quot;SF Pro Text&quot;,Helvetica,sans-serif;text-anchor:end;" transform="matrix(1 0 0 1 3036 1969)">Typeset at 100 points</text>
  <text style="stroke:none;fill:black;font-family:-apple-system,&quot;SF Pro Display&quot;,&quot;SF Pro Text&quot;,Helvetica,sans-serif;" transform="matrix(1 0 0 1 263 726)">Small</text>
  <text style="stroke:none;fill:black;font-family:-apple-system,&quot;SF Pro Display&quot;,&quot;SF Pro Text&quot;,Helvetica,sans-serif;" transform="matrix(1 0 0 1 263 1156)">Medium</text>
  <text style="stroke:none;fill:black;font-family:-apple-system,&quot;SF Pro Display&quot;,&quot;SF Pro Text&quot;,Helvetica,sans-serif;" transform="matrix(1 0 0 1 263 1586)">Large</text>
 </g>
 <g id="Guides">
  <g id="H-reference" style="fill:#27AAE1;stroke:none;" transform="matrix(1 0 0 1 339 696)">
   <path d="M 54.9316 0 L 57.666 0 L 30.5664 -70.459 L 28.0762 -70.459 L 0.976562 0 L 3.66211 0 L 12.9395 -24.4629 L 45.7031 -24.4629 Z M 29.1992 -67.0898 L 29.4434 -67.0898 L 44.8242 -26.709 L 13.8184 -26.709 Z"/>
  </g>
  <line id="Baseline-S" style="fill:none;stroke:#27AAE1;opacity:1;stroke-width:0.577;" x1="263" x2="3036" y1="696" y2="696"/>
  <line id="Capline-S" style="fill:none;stroke:#27AAE1;opacity:1;stroke-width:0.577;" x1="263" x2="3036" y1="625.541" y2="625.541"/>
  <g id="H-reference" style="fill:#27AAE1;stroke:none;" transform="matrix(1 0 0 1 339 1126)">
   <path d="M 54.9316 0 L 57.666 0 L 30.5664 -70.459 L 28.0762 -70.459 L 0.976562 0 L 3.66211 0 L 12.9395 -24.4629 L 45.7031 -24.4629 Z M 29.1992 -67.0898 L 29.4434 -67.0898 L 44.8242 -26.709 L 13.8184 -26.709 Z"/>
  </g>
  <line id="Baseline-M" style="fill:none;stroke:#27AAE1;opacity:1;stroke-width:0.577;" x1="263" x2="3036" y1="1126" y2="1126"/>
  <line id="Capline-M" style="fill:none;stroke:#27AAE1;opacity:1;stroke-width:0.577;" x1="263" x2="3036" y1="1055.54" y2="1055.54"/>
  <g id="H-reference" style="fill:#27AAE1;stroke:none;" transform="matrix(1 0 0 1 339 1556)">
   <path d="M 54.9316 0 L 57.666 0 L 30.5664 -70.459 L 28.0762 -70.459 L 0.976562 0 L 3.66211 0 L 12.9395 -24.4629 L 45.7031 -24.4629 Z M 29.1992 -67.0898 L 29.4434 -67.0898 L 44.8242 -26.709 L 13.8184 -26.709 Z"/>
  </g>
  <line id="Baseline-L" style="fill:none;stroke:#27AAE1;opacity:1;stroke-width:0.577;" x1="263" x2="3036" y1="1556" y2="1556"/>
  <line id="Capline-L" style="fill:none;stroke:#27AAE1;opacity:1;stroke-width:0.577;" x1="263" x2="3036" y1="1485.54" y2="1485.54"/>
  <rect height="119.336" id="left-margin" style="fill:#00AEEF;stroke:none;opacity:0.4;" width="12.4512" x="1386.98" y="1030.79"/>
  <rect height="119.336" id="right-margin" style="fill:#00AEEF;stroke:none;opacity:0.4;" width="12.4512" x="1500.26" y="1030.79"/>
 </g>
 <g id="Symbols">
  <g id="Black-L" transform="matrix(1 0 0 1 2846.32 1556)">
   <path d="M 87.0605 -83.4961 C 80.6152 -90.0879 70.5078 -95.5566 56.6406 -95.5566 C 37.1582 -95.5566 21.4355 -85.2051 16.0645 -74.9023 L 16.0645 12.2559 C 16.0645 21.2402 21.9238 24.5605 28.3203 24.5605 C 32.7148 24.5605 35.2051 23.3398 38.0371 21.2891 C 41.6992 18.6035 47.3145 15.5273 56.6406 15.5273 C 66.0645 15.5273 72.8516 18.6523 76.2207 20.8984 C 78.9062 22.7051 81.8848 24.5605 87.0605 24.5605 C 92.2852 24.5605 95.2637 22.7051 97.9004 20.8984 C 101.367 18.7012 108.105 15.5273 117.529 15.5273 C 126.855 15.5273 132.471 18.6523 136.133 21.2891 C 138.965 23.3398 141.455 24.5605 145.85 24.5605 C 152.197 24.5605 158.105 21.2402 158.105 12.2559 L 158.105 -74.9023 C 152.734 -85.2051 137.012 -95.5566 117.529 -95.5566 C 103.662 -95.5566 93.5547 -90.0879 87.0605 -83.4961 Z M 36.8652 -67.7734 C 39.1113 -71.4355 46.1426 -76.5137 56.6406 -76.5137 C 67.1387 -76.5137 74.7559 -71.4355 76.6602 -67.7734 L 76.6602 1.07422 C 70.9961 -2.63672 63.8184 -4.05273 56.6406 -4.05273 C 49.4629 -4.05273 42.5781 -2.63672 36.8652 1.2207 Z M 137.256 -67.7734 L 137.256 1.2207 C 131.592 -2.63672 124.707 -4.05273 117.529 -4.05273 C 110.352 -4.05273 103.174 -2.63672 97.5098 1.07422 L 97.5098 -67.7734 C 99.4141 -71.4355 107.031 -76.5137 117.529 -76.5137 C 128.027 -76.5137 135.059 -71.4355 137.256 -67.7734 Z"/>
  </g>
  <g id="Heavy-L" transform="matrix(1 0 0 1 2551.26 1556)">
   <path d="M 85.4492 -82.5195 C 79.541 -88.7695 68.9941 -94.3848 55.127 -94.3848 C 36.1816 -94.3848 20.8008 -84.3262 16.0645 -74.707 L 16.0645 12.8418 C 16.0645 20.6543 21.1914 23.584 26.7578 23.584 C 30.6641 23.584 32.8613 22.4609 35.4004 20.6055 C 38.916 17.8711 45.0684 14.3555 55.127 14.3555 C 65.2832 14.3555 72.4609 17.8223 75.7324 20.2637 C 78.0762 21.9238 80.7617 23.584 85.4492 23.584 C 90.0879 23.584 92.7734 21.875 95.1172 20.2637 C 98.4863 17.9199 105.615 14.3555 115.723 14.3555 C 125.781 14.3555 131.982 17.8711 135.498 20.6055 C 137.988 22.4609 140.234 23.584 144.141 23.584 C 149.707 23.584 154.785 20.6543 154.785 12.8418 L 154.785 -74.707 C 150.049 -84.3262 134.668 -94.3848 115.723 -94.3848 C 101.855 -94.3848 91.3086 -88.7695 85.4492 -82.5195 Z M 34.0332 -68.6035 C 35.9863 -72.3145 43.6523 -77.8809 55.127 -77.8809 C 66.6016 -77.8809 74.7559 -72.3145 76.4648 -68.6035 L 76.4648 3.125 C 70.752 -0.830078 63.0371 -2.49023 55.127 -2.49023 C 47.2168 -2.49023 39.7461 -0.830078 34.0332 3.27148 Z M 136.865 -68.6035 L 136.865 3.27148 C 131.152 -0.830078 123.682 -2.49023 115.723 -2.49023 C 107.812 -2.49023 100.098 -0.830078 94.3848 3.125 L 94.3848 -68.6035 C 96.0938 -72.3145 104.297 -77.8809 115.723 -77.8809 C 127.197 -77.8809 134.912 -72.3145 136.865 -68.6035 Z"/>
  </g>
  <g id="Bold-L" transform="matrix(1 0 0 1 2256.38 1556)">
   <path d="M 83.5938 -81.3477 C 78.3691 -87.3535 67.2852 -93.0176 53.418 -93.0176 C 35.1074 -93.0176 20.1172 -83.3984 16.0645 -74.4629 L 16.0645 13.4766 C 16.0645 19.9707 20.3125 22.4609 24.9512 22.4609 C 28.3203 22.4609 30.2734 21.4355 32.373 19.873 C 35.791 16.9922 42.5781 13.0371 53.418 13.0371 C 64.3555 13.0371 72.0703 16.9434 75.1465 19.5312 C 77.1484 20.9961 79.4922 22.4609 83.5938 22.4609 C 87.6465 22.4609 89.9902 20.9473 91.9922 19.5312 C 95.2148 17.041 102.783 13.0371 113.721 13.0371 C 124.609 13.0371 131.396 17.041 134.766 19.873 C 136.914 21.4355 138.867 22.4609 142.188 22.4609 C 146.875 22.4609 151.123 19.9707 151.123 13.4766 L 151.123 -74.4629 C 147.07 -83.3984 132.08 -93.0176 113.721 -93.0176 C 99.8535 -93.0176 88.8184 -87.3535 83.5938 -81.3477 Z M 30.8105 -69.5801 C 32.4707 -73.291 40.918 -79.3945 53.418 -79.3945 C 65.9668 -79.3945 74.7559 -73.291 76.2207 -69.5801 L 76.2207 5.41992 C 70.459 1.2207 62.207 -0.78125 53.418 -0.78125 C 44.6777 -0.78125 36.5234 1.2207 30.8105 5.61523 Z M 136.377 -69.5801 L 136.377 5.61523 C 130.615 1.2207 122.461 -0.78125 113.721 -0.78125 C 104.98 -0.78125 96.6797 1.2207 90.9668 5.41992 L 90.9668 -69.5801 C 92.3828 -73.291 101.221 -79.3945 113.721 -79.3945 C 126.27 -79.3945 134.717 -73.291 136.377 -69.5801 Z"/>
  </g>
  <g id="Semibold-L" transform="matrix(1 0 0 1 1960.97 1556)">
   <path d="M 82.3242 -80.5664 C 77.5391 -86.3281 66.1133 -92.041 52.2949 -92.041 C 34.375 -92.041 19.6289 -82.7637 16.0645 -74.3164 L 16.0645 13.916 C 16.0645 19.4824 19.7266 21.6797 23.7305 21.6797 C 26.709 21.6797 28.4668 20.752 30.3223 19.3359 C 33.6914 16.4062 40.8203 12.1094 52.2949 12.1094 C 63.7207 12.1094 71.7773 16.3086 74.7559 19.043 C 76.5137 20.3613 78.6621 21.6797 82.3242 21.6797 C 85.9863 21.6797 88.0371 20.3125 89.8438 19.043 C 92.9688 16.4062 100.879 12.1094 112.354 12.1094 C 123.779 12.1094 131.006 16.4062 134.277 19.3359 C 136.133 20.752 137.891 21.6797 140.869 21.6797 C 144.922 21.6797 148.535 19.4824 148.535 13.916 L 148.535 -74.3164 C 145.02 -82.7637 130.273 -92.041 112.354 -92.041 C 98.4863 -92.041 87.0605 -86.3281 82.3242 -80.5664 Z M 28.5645 -70.2637 C 30.0781 -73.9746 39.0137 -80.4688 52.2949 -80.4688 C 65.5273 -80.4688 74.7559 -73.9258 76.0254 -70.2637 L 76.0254 7.03125 C 70.3125 2.63672 61.5723 0.390625 52.2949 0.390625 C 42.9688 0.390625 34.3262 2.63672 28.5645 7.22656 Z M 136.035 -70.2637 L 136.035 7.22656 C 130.273 2.63672 121.68 0.390625 112.354 0.390625 C 103.027 0.390625 94.3359 2.63672 88.5742 7.03125 L 88.5742 -70.2637 C 89.8438 -73.9258 99.0723 -80.4688 112.354 -80.4688 C 125.586 -80.4688 134.57 -73.9746 136.035 -70.2637 Z"/>
  </g>
  <g id="Medium-L" transform="matrix(1 0 0 1 1665.21 1556)">
   <path d="M 81.3477 -79.9805 C 76.9043 -85.5957 65.2344 -91.3574 51.3672 -91.3574 C 33.7891 -91.3574 19.2383 -82.2754 16.0645 -74.1699 L 16.0645 14.2578 C 16.0645 19.1406 19.2383 21.0938 22.8027 21.0938 C 25.5371 21.0938 27.1484 20.2637 28.7598 18.9453 C 32.0312 15.918 39.5508 11.4258 51.3672 11.4258 C 63.2812 11.4258 71.5332 15.8203 74.4629 18.6523 C 76.0254 19.9219 77.9785 21.0938 81.3477 21.0938 C 84.7168 21.0938 86.6211 19.8242 88.2324 18.6523 C 91.3086 15.9668 99.4141 11.4258 111.279 11.4258 C 123.145 11.4258 130.713 15.9668 133.936 18.9453 C 135.547 20.2637 137.158 21.0938 139.893 21.0938 C 143.457 21.0938 146.631 19.1406 146.631 14.2578 L 146.631 -74.1699 C 143.408 -82.2754 128.906 -91.3574 111.279 -91.3574 C 97.4609 -91.3574 85.7422 -85.5957 81.3477 -79.9805 Z M 26.9043 -70.752 C 28.2227 -74.5117 37.5977 -81.2988 51.3672 -81.2988 C 65.1855 -81.2988 74.7559 -74.4629 75.9277 -70.752 L 75.9277 8.25195 C 70.166 3.66211 61.1328 1.26953 51.3672 1.26953 C 41.6504 1.26953 32.666 3.66211 26.9043 8.44727 Z M 135.791 -70.752 L 135.791 8.44727 C 130.029 3.66211 121.045 1.26953 111.279 1.26953 C 101.562 1.26953 92.5293 3.66211 86.7676 8.25195 L 86.7676 -70.752 C 87.9395 -74.4629 97.5098 -81.2988 111.279 -81.2988 C 125.098 -81.2988 134.473 -74.5117 135.791 -70.752 Z"/>
  </g>
  <g id="Regular-L" transform="matrix(1 0 0 1 1369.77 1556)">
   <path d="M 80.0781 -79.248 C 76.123 -84.5703 64.1113 -90.4297 50.2441 -90.4297 C 33.0566 -90.4297 18.7988 -81.6406 16.0645 -74.0234 L 16.0645 14.7461 C 16.0645 18.7012 18.6523 20.3125 21.582 20.3125 C 23.9258 20.3125 25.3418 19.5801 26.709 18.457 C 29.9316 15.332 37.8418 10.5469 50.2441 10.5469 C 62.6465 10.5469 71.2402 15.2344 74.0723 18.1641 C 75.4395 19.2871 77.1484 20.3125 80.0781 20.3125 C 83.0566 20.3125 84.7168 19.1895 86.084 18.1641 C 89.0625 15.3809 97.5098 10.5469 109.912 10.5469 C 122.363 10.5469 130.322 15.3809 133.447 18.457 C 134.814 19.5801 136.23 20.3125 138.574 20.3125 C 141.504 20.3125 144.092 18.7012 144.092 14.7461 L 144.092 -74.0234 C 141.406 -81.6406 127.1 -90.4297 109.912 -90.4297 C 96.0938 -90.4297 84.0332 -84.5703 80.0781 -79.248 Z M 24.707 -71.3867 C 25.8301 -75.1465 35.6934 -82.3242 50.2441 -82.3242 C 64.7949 -82.3242 74.7559 -75.0977 75.7812 -71.3867 L 75.7812 9.81445 C 69.9707 5.07812 60.5469 2.44141 50.2441 2.44141 C 39.9414 2.44141 30.4688 5.07812 24.707 10.0098 Z M 135.449 -71.3867 L 135.449 10.0098 C 129.688 5.07812 120.264 2.44141 109.912 2.44141 C 99.6094 2.44141 90.1855 5.07812 84.4238 9.81445 L 84.4238 -71.3867 C 85.4004 -75.0977 95.4102 -82.3242 109.912 -82.3242 C 124.463 -82.3242 134.326 -75.1465 135.449 -71.3867 Z"/>
  </g>
  <g id="Light-L" transform="matrix(1 0 0 1 1074.42 1556)">
   <path d="M 78.7109 -78.7109 C 75.9277 -83.1543 63.7207 -89.6484 49.0234 -89.6484 C 32.2754 -89.6484 17.7734 -81.0547 16.0645 -74.6094 L 16.0645 15.0879 C 16.0645 17.9688 17.9688 19.2383 20.166 19.2383 C 22.0215 19.2383 23.1934 18.7012 24.1211 17.7734 C 26.709 14.6484 35.5469 9.0332 49.0234 9.0332 C 62.5488 9.0332 71.7773 14.5508 74.1699 17.627 C 75.0977 18.5059 76.416 19.2383 78.7109 19.2383 C 80.957 19.2383 82.2754 18.4082 83.252 17.627 C 85.6934 14.5996 94.873 9.0332 108.35 9.0332 C 121.875 9.0332 130.713 14.6484 133.301 17.7734 C 134.229 18.7012 135.4 19.2383 137.207 19.2383 C 139.453 19.2383 141.357 17.9688 141.357 15.0879 L 141.357 -74.6094 C 139.648 -81.0547 125.146 -89.6484 108.35 -89.6484 C 93.6523 -89.6484 81.4941 -83.1543 78.7109 -78.7109 Z M 22.7051 -72.5586 C 23.3887 -76.123 34.2285 -83.4473 49.0234 -83.4473 C 63.8672 -83.4473 74.7559 -76.0742 75.3906 -72.5586 L 75.3906 10.6934 C 69.9219 5.56641 60.0586 2.83203 49.0234 2.83203 C 38.0371 2.83203 28.1738 5.56641 22.7051 10.8398 Z M 134.717 -72.5586 L 134.717 10.8398 C 129.248 5.56641 119.385 2.83203 108.35 2.83203 C 97.3633 2.83203 87.5 5.56641 82.0312 10.6934 L 82.0312 -72.5586 C 82.6172 -76.0742 93.5547 -83.4473 108.35 -83.4473 C 123.193 -83.4473 133.984 -76.123 134.717 -72.5586 Z"/>
  </g>
  <g id="Thin-L" transform="matrix(1 0 0 1 779.542 1556)">
   <path d="M 76.8555 -78.0762 C 75.6348 -81.2988 63.2324 -88.623 47.4609 -88.623 C 31.25 -88.623 16.4551 -80.3223 16.0645 -75.4395 L 16.0645 15.5762 C 16.0645 16.9922 17.041 17.8711 18.3594 17.8711 C 19.4824 17.8711 20.3125 17.4805 20.7031 16.8945 C 22.5098 13.7207 32.5684 7.08008 47.4609 7.08008 C 62.3535 7.08008 72.5098 13.623 74.2676 16.8945 C 74.6582 17.4316 75.4883 17.8711 76.8555 17.8711 C 78.2227 17.8711 79.1016 17.4316 79.4922 16.8945 C 81.25 13.623 91.4062 7.08008 106.299 7.08008 C 121.191 7.08008 131.25 13.7207 133.057 16.8945 C 133.447 17.4805 134.277 17.8711 135.4 17.8711 C 136.719 17.8711 137.695 16.9922 137.695 15.5762 L 137.695 -75.4395 C 137.305 -80.3223 122.51 -88.623 106.299 -88.623 C 90.4785 -88.623 78.0762 -81.2988 76.8555 -78.0762 Z M 20.0195 -74.1211 C 20.166 -77.3926 32.2754 -84.9121 47.4609 -84.9121 C 62.6465 -84.9121 74.8047 -77.3926 74.9023 -74.1211 L 74.9023 11.8652 C 69.8242 6.20117 59.375 3.36914 47.4609 3.36914 C 35.5469 3.36914 25.0977 6.20117 20.0195 11.9141 Z M 133.74 -74.1211 L 133.74 11.9141 C 128.662 6.20117 118.213 3.36914 106.299 3.36914 C 94.3848 3.36914 83.9355 6.20117 78.8574 11.8652 L 78.8574 -74.1211 C 78.9551 -77.3926 91.1133 -84.9121 106.299 -84.9121 C 121.484 -84.9121 133.594 -77.3926 133.74 -74.1211 Z"/>
  </g>
  <g id="Ultralight-L" transform="matrix(1 0 0 1 483.759 1556)">
   <path d="M 75.9277 -77.7344 C 75.5371 -80.3223 62.9883 -88.0859 46.6309 -88.0859 C 30.7129 -88.0859 15.7227 -79.9805 16.0645 -75.8301 L 16.0645 15.8203 C 16.0645 16.5039 16.5527 17.1387 17.3828 17.1387 C 18.1641 17.1387 18.8477 16.8457 18.9453 16.4551 C 20.3613 13.2324 31.0059 6.05469 46.6309 6.05469 C 62.2559 6.05469 72.8516 13.1836 74.3164 16.5039 C 74.4141 16.8945 75.0488 17.1387 75.9277 17.1387 C 76.8555 17.1387 77.4414 16.8945 77.5391 16.5039 C 79.0039 13.1348 89.5996 6.05469 105.225 6.05469 C 120.85 6.05469 131.543 13.2324 132.959 16.4551 C 133.057 16.8457 133.691 17.1387 134.473 17.1387 C 135.303 17.1387 135.791 16.5039 135.791 15.8203 L 135.791 -75.8301 C 136.133 -79.9805 121.191 -88.0859 105.225 -88.0859 C 88.8672 -88.0859 76.3672 -80.3223 75.9277 -77.7344 Z M 18.6523 -74.9023 C 18.5059 -78.0273 31.2988 -85.6445 46.6309 -85.6445 C 62.0117 -85.6445 74.8047 -78.0762 74.6582 -74.9023 L 74.6582 12.4512 C 69.7754 6.54297 59.0332 3.61328 46.6309 3.61328 C 34.2773 3.61328 23.5352 6.54297 18.6523 12.4512 Z M 133.252 -74.9023 L 133.252 12.4512 C 128.369 6.54297 117.578 3.61328 105.225 3.61328 C 92.8711 3.61328 82.1289 6.54297 77.1973 12.4512 L 77.1973 -74.9023 C 77.0996 -78.0762 89.8438 -85.6445 105.225 -85.6445 C 120.605 -85.6445 133.398 -78.0273 133.252 -74.9023 Z"/>
  </g>
  <g id="Black-M" transform="matrix(1 0 0 1 2864.43 1126)">
   <path d="M 68.9941 -73.7305 C 63.7695 -78.7109 56.4941 -83.2031 45.2637 -83.2031 C 29.6387 -83.2031 16.8945 -74.8047 12.4512 -66.6016 L 12.4512 0.976562 C 12.4512 8.98438 17.6758 11.9141 23.3398 11.9141 C 27.0996 11.9141 29.248 10.8398 31.6895 9.08203 C 34.375 7.17773 38.4766 4.88281 45.2637 4.88281 C 52.2461 4.88281 57.2754 7.22656 59.8145 8.83789 C 62.0605 10.3516 64.5996 11.9141 68.9941 11.9141 C 73.3887 11.9141 75.8789 10.3516 78.125 8.83789 C 80.6641 7.22656 85.6934 4.88281 92.6758 4.88281 C 99.5117 4.88281 103.564 7.17773 106.25 9.08203 C 108.691 10.8398 110.84 11.9141 114.6 11.9141 C 120.264 11.9141 125.488 8.98438 125.488 0.976562 L 125.488 -66.6016 C 121.045 -74.8047 108.301 -83.2031 92.6758 -83.2031 C 81.4941 -83.2031 74.1699 -78.7109 68.9941 -73.7305 Z M 31.3965 -59.9121 C 33.2031 -62.6465 38.2812 -65.9668 45.2637 -65.9668 C 52.2949 -65.9668 57.959 -62.6465 59.5215 -59.9121 L 59.5215 -9.375 C 55.2734 -12.1094 50.2441 -12.8906 45.2637 -12.8906 C 40.332 -12.8906 35.5957 -12.1094 31.3965 -9.32617 Z M 106.592 -59.9121 L 106.592 -9.32617 C 102.344 -12.1094 97.6074 -12.8906 92.6758 -12.8906 C 87.7441 -12.8906 82.666 -12.1094 78.418 -9.375 L 78.418 -59.9121 C 80.0293 -62.6465 85.6445 -65.9668 92.6758 -65.9668 C 99.6582 -65.9668 104.736 -62.6465 106.592 -59.9121 Z"/>
  </g>
  <g id="Heavy-M" transform="matrix(1 0 0 1 2569.16 1126)">
   <path d="M 67.5293 -72.7539 C 62.6953 -77.6855 54.9316 -82.0801 43.9453 -82.0801 C 28.8086 -82.0801 16.5039 -74.0234 12.4512 -66.2109 L 12.4512 1.51367 C 12.4512 8.49609 16.9922 11.084 21.9727 11.084 C 25.3418 11.084 27.2949 10.1074 29.4434 8.54492 C 32.1777 6.49414 36.6211 4.00391 43.9453 4.00391 C 51.3672 4.00391 56.6895 6.54297 59.2285 8.30078 C 61.2793 9.66797 63.5254 11.084 67.5293 11.084 C 71.5332 11.084 73.7793 9.66797 75.8301 8.30078 C 78.3691 6.54297 83.6914 4.00391 91.1133 4.00391 C 98.4375 4.00391 102.93 6.54297 105.615 8.54492 C 107.764 10.1074 109.717 11.084 113.086 11.084 C 118.066 11.084 122.607 8.49609 122.607 1.51367 L 122.607 -66.2109 C 118.604 -74.0234 106.25 -82.0801 91.1133 -82.0801 C 80.127 -82.0801 72.3633 -77.6855 67.5293 -72.7539 Z M 28.7598 -60.5469 C 30.4199 -63.3301 35.9863 -67.1387 43.9453 -67.1387 C 51.9043 -67.1387 57.959 -63.3301 59.375 -60.5469 L 59.375 -7.37305 C 55.0293 -10.3027 49.5117 -11.3281 43.9453 -11.3281 C 38.3789 -11.3281 33.1055 -10.3027 28.7598 -7.27539 Z M 106.299 -60.5469 L 106.299 -7.27539 C 101.953 -10.3027 96.6797 -11.3281 91.1133 -11.3281 C 85.5469 -11.3281 80.0293 -10.3027 75.6836 -7.37305 L 75.6836 -60.5469 C 77.0996 -63.3301 83.1543 -67.1387 91.1133 -67.1387 C 99.0723 -67.1387 104.639 -63.3301 106.299 -60.5469 Z"/>
  </g>
  <g id="Bold-M" transform="matrix(1 0 0 1 2274.06 1126)">
   <path d="M 65.918 -71.6797 C 61.4258 -76.5137 53.1738 -80.8594 42.4316 -80.8594 C 27.8809 -80.8594 16.0156 -73.1445 12.4512 -65.7715 L 12.4512 2.09961 C 12.4512 7.95898 16.2598 10.1562 20.459 10.1562 C 23.3887 10.1562 25.0488 9.32617 26.9531 7.91016 C 29.6875 5.76172 34.5215 2.97852 42.4316 2.97852 C 50.4395 2.97852 56.1035 5.76172 58.5938 7.66602 C 60.3516 8.93555 62.4023 10.1562 65.918 10.1562 C 69.4336 10.1562 71.4355 8.88672 73.2422 7.66602 C 75.8301 5.81055 81.3965 2.97852 89.3555 2.97852 C 97.3145 2.97852 102.148 5.81055 104.883 7.91016 C 106.738 9.32617 108.447 10.1562 111.377 10.1562 C 115.576 10.1562 119.385 7.95898 119.385 2.09961 L 119.385 -65.7715 C 115.82 -73.1445 103.955 -80.8594 89.3555 -80.8594 C 78.6621 -80.8594 70.3613 -76.5137 65.918 -71.6797 Z M 25.8301 -61.2305 C 27.2949 -64.1113 33.3984 -68.5059 42.4316 -68.5059 C 51.5137 -68.5059 57.959 -64.1113 59.2285 -61.2305 L 59.2285 -5.12695 C 54.7852 -8.20312 48.7305 -9.57031 42.4316 -9.57031 C 36.1816 -9.57031 30.2734 -8.20312 25.8301 -4.98047 Z M 106.006 -61.2305 L 106.006 -4.98047 C 101.562 -8.20312 95.6543 -9.57031 89.3555 -9.57031 C 83.1055 -9.57031 77.0508 -8.20312 72.6074 -5.12695 L 72.6074 -61.2305 C 73.877 -64.1113 80.3223 -68.5059 89.3555 -68.5059 C 98.4375 -68.5059 104.541 -64.1113 106.006 -61.2305 Z"/>
  </g>
  <g id="Semibold-M" transform="matrix(1 0 0 1 1978.47 1126)">
   <path d="M 64.7949 -70.9473 C 60.5957 -75.6836 52.002 -79.9805 41.4062 -79.9805 C 27.1973 -79.9805 15.6738 -72.5586 12.4512 -65.4785 L 12.4512 2.53906 C 12.4512 7.61719 15.7715 9.52148 19.3848 9.52148 C 22.0215 9.52148 23.5352 8.74023 25.2441 7.51953 C 27.9785 5.27344 33.1055 2.29492 41.4062 2.29492 C 49.7559 2.29492 55.6641 5.22461 58.1543 7.22656 C 59.7168 8.39844 61.5723 9.52148 64.7949 9.52148 C 68.0176 9.52148 69.8242 8.30078 71.4355 7.22656 C 74.0234 5.32227 79.834 2.29492 88.1836 2.29492 C 96.4844 2.29492 101.66 5.27344 104.395 7.51953 C 106.055 8.74023 107.568 9.52148 110.205 9.52148 C 113.818 9.52148 117.139 7.61719 117.139 2.53906 L 117.139 -65.4785 C 113.916 -72.5586 102.393 -79.9805 88.1836 -79.9805 C 77.6367 -79.9805 68.9941 -75.6836 64.7949 -70.9473 Z M 23.8281 -61.7188 C 25.1953 -64.6973 31.5918 -69.4824 41.4062 -69.4824 C 51.2207 -69.4824 57.959 -64.6484 59.1309 -61.7188 L 59.1309 -3.56445 C 54.5898 -6.78711 48.1934 -8.34961 41.4062 -8.34961 C 34.668 -8.34961 28.3203 -6.78711 23.8281 -3.41797 Z M 105.762 -61.7188 L 105.762 -3.41797 C 101.27 -6.78711 94.9219 -8.34961 88.1836 -8.34961 C 81.4453 -8.34961 75 -6.78711 70.5078 -3.56445 L 70.5078 -61.7188 C 71.6309 -64.6484 78.3691 -69.4824 88.1836 -69.4824 C 97.998 -69.4824 104.443 -64.6973 105.762 -61.7188 Z"/>
  </g>
  <g id="Medium-M" transform="matrix(1 0 0 1 1682.59 1126)">
   <path d="M 63.9648 -70.3613 C 59.9609 -75.0977 51.0742 -79.2969 40.625 -79.2969 C 26.709 -79.2969 15.4297 -72.0703 12.4512 -65.2344 L 12.4512 2.88086 C 12.4512 7.32422 15.3809 9.0332 18.5547 9.0332 C 20.9961 9.0332 22.4121 8.30078 23.9258 7.17773 C 26.709 4.88281 32.0312 1.75781 40.625 1.75781 C 49.2676 1.75781 55.3223 4.78516 57.8125 6.88477 C 59.2773 8.00781 60.9863 9.0332 63.9648 9.0332 C 66.9434 9.0332 68.6035 7.91016 70.1172 6.88477 C 72.7051 4.93164 78.6133 1.75781 87.2559 1.75781 C 95.8984 1.75781 101.27 4.93164 104.004 7.17773 C 105.518 8.30078 106.934 9.0332 109.326 9.0332 C 112.549 9.0332 115.479 7.32422 115.479 2.88086 L 115.479 -65.2344 C 112.451 -72.0703 101.172 -79.2969 87.2559 -79.2969 C 76.8555 -79.2969 67.9688 -75.0977 63.9648 -70.3613 Z M 22.3145 -62.1094 C 23.5352 -65.0879 30.2734 -70.166 40.625 -70.166 C 51.0254 -70.166 57.959 -65.0391 59.0332 -62.1094 L 59.0332 -2.39258 C 54.4434 -5.71289 47.7539 -7.42188 40.625 -7.42188 C 33.4961 -7.42188 26.8555 -5.71289 22.3145 -2.19727 Z M 105.615 -62.1094 L 105.615 -2.19727 C 101.025 -5.71289 94.3848 -7.42188 87.2559 -7.42188 C 80.127 -7.42188 73.4375 -5.71289 68.8965 -2.39258 L 68.8965 -62.1094 C 69.9707 -65.0391 76.9043 -70.166 87.2559 -70.166 C 97.6562 -70.166 104.346 -65.0879 105.615 -62.1094 Z"/>
  </g>
  <g id="Regular-M" transform="matrix(1 0 0 1 1386.98 1126)">
   <path d="M 62.8418 -69.6289 C 59.1309 -74.3164 49.9023 -78.4668 39.5996 -78.4668 C 26.0742 -78.4668 15.1367 -71.4844 12.4512 -64.9414 L 12.4512 3.27148 C 12.4512 6.98242 14.8438 8.39844 17.5293 8.39844 C 19.6289 8.39844 20.8984 7.76367 22.2168 6.73828 C 25 4.3457 30.6152 1.12305 39.5996 1.12305 C 48.6328 1.12305 54.9316 4.24805 57.373 6.44531 C 58.6426 7.4707 60.1562 8.39844 62.8418 8.39844 C 65.5273 8.39844 67.041 7.37305 68.3105 6.44531 C 70.9473 4.39453 77.0996 1.12305 86.084 1.12305 C 95.1172 1.12305 100.732 4.39453 103.516 6.73828 C 104.834 7.76367 106.055 8.39844 108.154 8.39844 C 110.84 8.39844 113.281 6.98242 113.281 3.27148 L 113.281 -64.9414 C 110.596 -71.4844 99.6094 -78.4668 86.084 -78.4668 C 75.8301 -78.4668 66.6016 -74.3164 62.8418 -69.6289 Z M 20.3125 -62.5977 C 21.4355 -65.625 28.5156 -71.0938 39.5996 -71.0938 C 50.7324 -71.0938 57.959 -65.5762 58.9355 -62.5977 L 58.9355 -0.830078 C 54.2969 -4.29688 47.2168 -6.25 39.5996 -6.25 C 32.0312 -6.25 24.9512 -4.29688 20.3125 -0.634766 Z M 105.42 -62.5977 L 105.42 -0.634766 C 100.732 -4.29688 93.7012 -6.25 86.084 -6.25 C 78.4668 -6.25 71.4355 -4.29688 66.7969 -0.830078 L 66.7969 -62.5977 C 67.7734 -65.5762 75 -71.0938 86.084 -71.0938 C 97.2168 -71.0938 104.297 -65.625 105.42 -62.5977 Z"/>
  </g>
  <g id="Light-M" transform="matrix(1 0 0 1 1091.51 1126)">
   <path d="M 61.6211 -69.1406 C 58.9355 -72.998 49.5605 -77.7344 38.5254 -77.7344 C 25.3906 -77.7344 14.209 -70.9961 12.4512 -65.4785 L 12.4512 3.61328 C 12.4512 6.29883 14.2578 7.4707 16.2598 7.4707 C 17.9199 7.4707 18.9453 6.93359 19.873 6.15234 C 22.1191 3.71094 28.5645 -0.244141 38.5254 -0.244141 C 48.5352 -0.244141 55.3711 3.66211 57.4219 5.95703 C 58.3496 6.73828 59.5703 7.4707 61.6211 7.4707 C 63.6719 7.4707 64.8438 6.68945 65.7715 5.95703 C 67.9199 3.71094 74.707 -0.244141 84.668 -0.244141 C 94.6777 -0.244141 101.123 3.75977 103.369 6.15234 C 104.297 6.93359 105.322 7.4707 106.934 7.4707 C 108.984 7.4707 110.791 6.29883 110.791 3.61328 L 110.791 -65.4785 C 108.984 -70.9961 97.8516 -77.7344 84.668 -77.7344 C 73.6816 -77.7344 64.3066 -72.998 61.6211 -69.1406 Z M 18.5059 -63.623 C 19.2383 -66.5039 27.1973 -72.0703 38.5254 -72.0703 C 49.9023 -72.0703 57.959 -66.4551 58.5938 -63.623 L 58.5938 -0.0488281 C 54.1992 -3.85742 46.7773 -5.9082 38.5254 -5.9082 C 30.3223 -5.9082 22.8516 -3.85742 18.5059 0.0976562 Z M 104.736 -63.623 L 104.736 0.0976562 C 100.342 -3.85742 92.9199 -5.9082 84.668 -5.9082 C 76.4648 -5.9082 68.9941 -3.85742 64.6484 -0.0488281 L 64.6484 -63.623 C 65.2832 -66.4551 73.3398 -72.0703 84.668 -72.0703 C 96.0449 -72.0703 104.004 -66.5039 104.736 -63.623 Z"/>
  </g>
  <g id="Thin-M" transform="matrix(1 0 0 1 796.461 1126)">
   <path d="M 59.9609 -68.5547 C 58.6914 -71.3379 49.1211 -76.8066 37.1094 -76.8066 C 24.4141 -76.8066 13.0371 -70.3613 12.4512 -66.2109 L 12.4512 4.05273 C 12.4512 5.46875 13.4277 6.20117 14.5996 6.20117 C 15.625 6.20117 16.3574 5.85938 16.7969 5.37109 C 18.3594 2.88086 25.8789 -2.00195 37.1094 -2.00195 C 48.3398 -2.00195 56.0547 2.83203 57.5195 5.32227 C 57.959 5.81055 58.7402 6.20117 59.9609 6.20117 C 61.2305 6.20117 61.9629 5.81055 62.4023 5.32227 C 63.9648 2.88086 71.582 -2.00195 82.8125 -2.00195 C 94.043 -2.00195 101.611 2.92969 103.174 5.37109 C 103.613 5.85938 104.297 6.20117 105.322 6.20117 C 106.543 6.20117 107.471 5.46875 107.471 4.05273 L 107.471 -66.2109 C 106.934 -70.3613 95.5078 -76.8066 82.8125 -76.8066 C 70.8008 -76.8066 61.2305 -71.3379 59.9609 -68.5547 Z M 16.0645 -65.0391 C 16.3086 -67.627 25.4395 -73.3887 37.1094 -73.3887 C 48.8281 -73.3887 57.959 -67.627 58.1543 -65.0391 L 58.1543 1.02539 C 54.1504 -3.27148 46.1426 -5.41992 37.1094 -5.41992 C 28.0762 -5.41992 20.1172 -3.27148 16.0645 1.07422 Z M 103.857 -65.0391 L 103.857 1.07422 C 99.8535 -3.27148 91.8457 -5.41992 82.8125 -5.41992 C 73.7793 -5.41992 65.8203 -3.27148 61.7676 1.02539 L 61.7676 -65.0391 C 62.0117 -67.627 71.1426 -73.3887 82.8125 -73.3887 C 94.5312 -73.3887 103.613 -67.627 103.857 -65.0391 Z"/>
  </g>
  <g id="Ultralight-M" transform="matrix(1 0 0 1 500.58 1126)">
   <path d="M 59.1309 -68.2617 C 58.5449 -70.459 48.877 -76.3672 36.377 -76.3672 C 23.9258 -76.3672 12.4023 -70.0195 12.4512 -66.6016 L 12.4512 4.24805 C 12.4512 5.0293 12.9883 5.56641 13.7695 5.56641 C 14.502 5.56641 15.0391 5.32227 15.1855 4.98047 C 16.4062 2.49023 24.5117 -2.92969 36.377 -2.92969 C 48.291 -2.92969 56.3477 2.39258 57.5684 4.98047 C 57.7637 5.32227 58.3008 5.56641 59.1309 5.56641 C 59.9609 5.56641 60.498 5.32227 60.6934 4.98047 C 61.9141 2.39258 69.9707 -2.92969 81.8848 -2.92969 C 93.75 -2.92969 101.855 2.49023 103.076 4.98047 C 103.223 5.32227 103.76 5.56641 104.492 5.56641 C 105.273 5.56641 105.811 5.0293 105.811 4.24805 L 105.811 -66.6016 C 105.859 -70.0195 94.3359 -76.3672 81.8848 -76.3672 C 69.3848 -76.3672 59.7168 -70.459 59.1309 -68.2617 Z M 14.8438 -65.7227 C 14.8438 -68.2129 24.5117 -74.0723 36.377 -74.0723 C 48.2422 -74.0723 57.959 -68.2129 57.9102 -65.7227 L 57.9102 1.5625 C 54.1016 -2.92969 45.8496 -5.22461 36.377 -5.22461 C 26.9531 -5.22461 18.7012 -2.92969 14.8438 1.5625 Z M 103.418 -65.7227 L 103.418 1.5625 C 99.5605 -2.92969 91.3086 -5.22461 81.8848 -5.22461 C 72.4121 -5.22461 64.1602 -2.92969 60.3027 1.5625 L 60.3027 -65.7227 C 60.3027 -68.2129 70.0195 -74.0723 81.8848 -74.0723 C 93.7012 -74.0723 103.418 -68.2129 103.418 -65.7227 Z"/>
  </g>
  <g id="Black-S" transform="matrix(1 0 0 1 2879.44 696)">
   <path d="M 53.9551 -65.332 C 49.9023 -69.2383 44.1406 -72.7539 35.4004 -72.7539 C 23.1934 -72.7539 13.2324 -66.1621 9.76562 -59.7656 L 9.76562 -6.83594 C 9.76562 -0.634766 13.8184 1.66016 18.2129 1.66016 C 21.1426 1.66016 22.8027 0.830078 24.707 -0.537109 C 26.8066 -2.05078 30.0293 -3.85742 35.4004 -3.85742 C 40.8691 -3.85742 44.8242 -2.00195 46.8262 -0.732422 C 48.584 0.439453 50.5371 1.66016 53.9551 1.66016 C 57.373 1.66016 59.3262 0.439453 61.084 -0.732422 C 63.0859 -2.00195 67.041 -3.85742 72.5098 -3.85742 C 77.8809 -3.85742 81.1035 -2.05078 83.2031 -0.537109 C 85.1074 0.830078 86.7676 1.66016 89.6973 1.66016 C 94.0918 1.66016 98.1445 -0.634766 98.1445 -6.83594 L 98.1445 -59.7656 C 94.6777 -66.1621 84.7168 -72.7539 72.5098 -72.7539 C 63.7695 -72.7539 58.0078 -69.2383 53.9551 -65.332 Z M 24.4141 -54.5898 C 25.8301 -56.7383 29.834 -59.375 35.4004 -59.375 C 40.9668 -59.375 45.4102 -56.7383 46.6309 -54.5898 L 46.6309 -14.8438 C 43.3105 -16.9922 39.3066 -17.627 35.4004 -17.627 C 31.4941 -17.627 27.7344 -16.9922 24.4141 -14.7949 Z M 83.4961 -54.5898 L 83.4961 -14.7949 C 80.1758 -16.9922 76.416 -17.627 72.5098 -17.627 C 68.6035 -17.627 64.5996 -16.9922 61.2793 -14.8438 L 61.2793 -54.5898 C 62.5 -56.7383 66.9434 -59.375 72.5098 -59.375 C 78.0762 -59.375 82.0801 -56.7383 83.4961 -54.5898 Z"/>
  </g>
  <g id="Heavy-S" transform="matrix(1 0 0 1 2583.71 696)">
   <path d="M 52.9785 -64.6484 C 49.0723 -68.6035 42.9688 -71.9727 34.4727 -71.9727 C 22.6074 -71.9727 13.0371 -65.625 9.76562 -59.4238 L 9.76562 -6.44531 C 9.76562 -0.927734 13.3789 1.12305 17.2852 1.12305 C 19.9707 1.12305 21.5332 0.341797 23.2422 -0.878906 C 25.4395 -2.49023 28.8574 -4.39453 34.4727 -4.39453 C 40.2344 -4.39453 44.3359 -2.49023 46.3867 -1.12305 C 47.998 0 49.8047 1.12305 52.9785 1.12305 C 56.1523 1.12305 57.959 0 59.6191 -1.12305 C 61.6699 -2.44141 65.7227 -4.39453 71.4844 -4.39453 C 77.1484 -4.39453 80.5664 -2.49023 82.7148 -0.878906 C 84.4727 0.341797 85.9863 1.12305 88.6719 1.12305 C 92.5781 1.12305 96.1914 -0.927734 96.1914 -6.44531 L 96.1914 -59.4238 C 92.9688 -65.625 83.3496 -71.9727 71.4844 -71.9727 C 62.9883 -71.9727 56.8848 -68.6035 52.9785 -64.6484 Z M 22.6074 -54.9805 C 23.9746 -57.1777 28.2227 -60.2051 34.4727 -60.2051 C 40.7715 -60.2051 45.4102 -57.1777 46.582 -54.9805 L 46.582 -13.3789 C 43.1152 -15.625 38.8184 -16.4551 34.4727 -16.4551 C 30.1758 -16.4551 26.0254 -15.625 22.6074 -13.2812 Z M 83.3496 -54.9805 L 83.3496 -13.2812 C 79.9316 -15.625 75.7812 -16.4551 71.4844 -16.4551 C 67.1387 -16.4551 62.8418 -15.625 59.4238 -13.3789 L 59.4238 -54.9805 C 60.5469 -57.1777 65.1855 -60.2051 71.4844 -60.2051 C 77.7344 -60.2051 82.0312 -57.1777 83.3496 -54.9805 Z"/>
  </g>
  <g id="Bold-S" transform="matrix(1 0 0 1 2288.07 696)">
   <path d="M 51.9043 -63.8672 C 48.1445 -67.8223 41.6992 -71.0938 33.4961 -71.0938 C 21.9727 -71.0938 12.793 -65.0391 9.76562 -58.9844 L 9.76562 -6.00586 C 9.76562 -1.26953 12.8906 0.537109 16.3086 0.537109 C 18.7012 0.537109 20.0684 -0.146484 21.6309 -1.26953 C 23.877 -2.97852 27.4902 -4.98047 33.4961 -4.98047 C 39.502 -4.98047 43.7988 -2.97852 45.8984 -1.51367 C 47.3633 -0.488281 49.0234 0.537109 51.9043 0.537109 C 54.834 0.537109 56.4453 -0.537109 57.9102 -1.51367 C 60.0586 -2.92969 64.3066 -4.98047 70.3125 -4.98047 C 76.3184 -4.98047 79.9316 -2.97852 82.1777 -1.26953 C 83.7402 -0.146484 85.1074 0.537109 87.5488 0.537109 C 90.918 0.537109 94.043 -1.26953 94.043 -6.00586 L 94.043 -58.9844 C 91.0645 -65.0391 81.8359 -71.0938 70.3125 -71.0938 C 62.1094 -71.0938 55.6641 -67.8223 51.9043 -63.8672 Z M 20.6055 -55.3711 C 21.875 -57.666 26.416 -61.1328 33.4961 -61.1328 C 40.5762 -61.1328 45.4102 -57.666 46.4844 -55.3711 L 46.4844 -11.7676 C 42.9199 -14.1113 38.2812 -15.1367 33.4961 -15.1367 C 28.7109 -15.1367 24.1699 -14.1113 20.6055 -11.6211 Z M 83.2031 -55.3711 L 83.2031 -11.6211 C 79.6387 -14.1113 75.0977 -15.1367 70.3125 -15.1367 C 65.5273 -15.1367 60.8887 -14.1113 57.3242 -11.7676 L 57.3242 -55.3711 C 58.3984 -57.666 63.2324 -61.1328 70.3125 -61.1328 C 77.3926 -61.1328 81.9824 -57.666 83.2031 -55.3711 Z"/>
  </g>
  <g id="Semibold-S" transform="matrix(1 0 0 1 1992.12 696)">
   <path d="M 51.1719 -63.3301 C 47.5098 -67.334 40.8203 -70.459 32.8125 -70.459 C 21.5332 -70.459 12.5977 -64.5996 9.76562 -58.7402 L 9.76562 -5.71289 C 9.76562 -1.46484 12.5488 0.146484 15.5762 0.146484 C 17.7734 0.146484 19.043 -0.537109 20.5078 -1.5625 C 22.8516 -3.32031 26.5625 -5.41992 32.8125 -5.41992 C 39.0137 -5.41992 43.457 -3.36914 45.5566 -1.80664 C 46.875 -0.830078 48.4375 0.146484 51.1719 0.146484 C 53.8574 0.146484 55.4199 -0.878906 56.7871 -1.80664 C 58.9844 -3.27148 63.2812 -5.41992 69.5312 -5.41992 C 75.7324 -5.41992 79.4922 -3.27148 81.8359 -1.5625 C 83.252 -0.537109 84.5215 0.146484 86.7188 0.146484 C 89.7461 0.146484 92.5293 -1.46484 92.5293 -5.71289 L 92.5293 -58.7402 C 89.6973 -64.5996 80.7617 -70.459 69.5312 -70.459 C 61.5234 -70.459 54.7852 -67.334 51.1719 -63.3301 Z M 19.2383 -55.6641 C 20.4102 -58.0078 25.1465 -61.7676 32.8125 -61.7676 C 40.4297 -61.7676 45.4102 -58.0078 46.4355 -55.6641 L 46.4355 -10.6445 C 42.8223 -13.0371 37.8906 -14.2578 32.8125 -14.2578 C 27.6855 -14.2578 22.8516 -13.0371 19.2383 -10.498 Z M 83.1055 -55.6641 L 83.1055 -10.498 C 79.4434 -13.0371 74.6094 -14.2578 69.5312 -14.2578 C 64.4043 -14.2578 59.5215 -13.0371 55.9082 -10.6445 L 55.9082 -55.6641 C 56.8848 -58.0078 61.9141 -61.7676 69.5312 -61.7676 C 77.1484 -61.7676 81.9336 -58.0078 83.1055 -55.6641 Z"/>
  </g>
  <g id="Medium-S" transform="matrix(1 0 0 1 1695.97 696)">
   <path d="M 50.5859 -62.8906 C 47.0215 -66.9434 40.1367 -70.0195 32.2754 -70.0195 C 21.2402 -70.0195 12.5 -64.3066 9.76562 -58.4961 L 9.76562 -5.51758 C 9.76562 -1.66016 12.3047 -0.195312 15.0391 -0.195312 C 17.1387 -0.195312 18.3105 -0.78125 19.6289 -1.75781 C 22.0215 -3.56445 25.8789 -5.71289 32.2754 -5.71289 C 38.6719 -5.71289 43.1641 -3.66211 45.2637 -2.05078 C 46.5332 -1.07422 47.998 -0.195312 50.5859 -0.195312 C 53.1738 -0.195312 54.5898 -1.17188 55.9082 -2.05078 C 58.1543 -3.51562 62.5488 -5.71289 68.9453 -5.71289 C 75.293 -5.71289 79.1992 -3.51562 81.543 -1.75781 C 82.8613 -0.78125 84.082 -0.195312 86.1328 -0.195312 C 88.8672 -0.195312 91.4062 -1.66016 91.4062 -5.51758 L 91.4062 -58.4961 C 88.7207 -64.3066 79.9805 -70.0195 68.9453 -70.0195 C 61.0352 -70.0195 54.1504 -66.9434 50.5859 -62.8906 Z M 18.1641 -55.8594 C 19.2871 -58.3008 24.2188 -62.207 32.2754 -62.207 C 40.2832 -62.207 45.4102 -58.252 46.3867 -55.8594 L 46.3867 -9.76562 C 42.7246 -12.2559 37.5977 -13.5742 32.2754 -13.5742 C 26.9043 -13.5742 21.875 -12.2559 18.1641 -9.61914 Z M 83.0078 -55.8594 L 83.0078 -9.61914 C 79.3457 -12.2559 74.2676 -13.5742 68.9453 -13.5742 C 63.5742 -13.5742 58.4961 -12.2559 54.7852 -9.76562 L 54.7852 -55.8594 C 55.7617 -58.252 60.8887 -62.207 68.9453 -62.207 C 76.9531 -62.207 81.8848 -58.3008 83.0078 -55.8594 Z"/>
  </g>
  <g id="Regular-S" transform="matrix(1 0 0 1 1399.99 696)">
   <path d="M 49.8535 -62.4023 C 46.3867 -66.4551 39.2578 -69.4336 31.5918 -69.4336 C 20.8008 -69.4336 12.3047 -63.8672 9.76562 -58.252 L 9.76562 -5.22461 C 9.76562 -1.85547 11.9629 -0.585938 14.3555 -0.585938 C 16.2598 -0.585938 17.334 -1.17188 18.5547 -2.05078 C 20.9961 -3.90625 25 -6.10352 31.5918 -6.10352 C 38.1836 -6.10352 42.8223 -4.00391 44.9219 -2.34375 C 46.0938 -1.41602 47.4609 -0.585938 49.8535 -0.585938 C 52.2461 -0.585938 53.5645 -1.51367 54.7852 -2.34375 C 57.0312 -3.85742 61.5234 -6.10352 68.1641 -6.10352 C 74.7559 -6.10352 78.7598 -3.85742 81.2012 -2.05078 C 82.373 -1.17188 83.4961 -0.585938 85.3516 -0.585938 C 87.7441 -0.585938 89.9414 -1.85547 89.9414 -5.22461 L 89.9414 -58.252 C 87.4023 -63.8672 78.9062 -69.4336 68.1641 -69.4336 C 60.4492 -69.4336 53.3203 -66.4551 49.8535 -62.4023 Z M 16.7969 -56.1523 C 17.8711 -58.6426 22.998 -62.8418 31.5918 -62.8418 C 40.1367 -62.8418 45.4102 -58.5938 46.3379 -56.1523 L 46.3379 -8.64258 C 42.5781 -11.2305 37.2559 -12.6953 31.5918 -12.6953 C 25.9277 -12.6953 20.5566 -11.2305 16.7969 -8.49609 Z M 82.9102 -56.1523 L 82.9102 -8.49609 C 79.1504 -11.2305 73.7793 -12.6953 68.1641 -12.6953 C 62.5 -12.6953 57.1289 -11.2305 53.3691 -8.64258 L 53.3691 -56.1523 C 54.2969 -58.5938 59.5703 -62.8418 68.1641 -62.8418 C 76.709 -62.8418 81.8359 -58.6426 82.9102 -56.1523 Z"/>
  </g>
  <g id="Light-S" transform="matrix(1 0 0 1 1104.38 696)">
   <path d="M 48.7793 -61.9629 C 46.2402 -65.332 38.9648 -68.7988 30.6152 -68.7988 C 20.166 -68.7988 11.5234 -63.4277 9.76562 -58.7402 L 9.76562 -4.93164 C 9.76562 -2.44141 11.4258 -1.41602 13.2324 -1.41602 C 14.6973 -1.41602 15.5762 -1.85547 16.4551 -2.58789 C 18.457 -4.44336 23.1934 -7.32422 30.6152 -7.32422 C 38.0859 -7.32422 43.2129 -4.54102 44.9707 -2.7832 C 45.8496 -2.05078 46.9238 -1.41602 48.7793 -1.41602 C 50.5859 -1.41602 51.6602 -2.09961 52.5391 -2.7832 C 54.3945 -4.44336 59.4727 -7.32422 66.8945 -7.32422 C 74.3164 -7.32422 79.1016 -4.44336 81.0547 -2.58789 C 81.9336 -1.85547 82.8125 -1.41602 84.2773 -1.41602 C 86.084 -1.41602 87.7441 -2.44141 87.7441 -4.93164 L 87.7441 -58.7402 C 85.9863 -63.4277 77.3438 -68.7988 66.8945 -68.7988 C 58.5449 -68.7988 51.2695 -65.332 48.7793 -61.9629 Z M 15.1855 -57.0801 C 15.918 -59.375 21.8262 -63.7207 30.6152 -63.7207 C 39.4043 -63.7207 45.4102 -59.375 46.0449 -57.0801 L 46.0449 -7.95898 C 42.5293 -10.791 36.8164 -12.4023 30.6152 -12.4023 C 24.4141 -12.4023 18.75 -10.791 15.1855 -7.8125 Z M 82.3242 -57.0801 L 82.3242 -7.8125 C 78.8086 -10.791 73.0957 -12.4023 66.8945 -12.4023 C 60.6934 -12.4023 54.9805 -10.791 51.4648 -7.95898 L 51.4648 -57.0801 C 52.0996 -59.375 58.1055 -63.7207 66.8945 -63.7207 C 75.6836 -63.7207 81.5918 -59.375 82.3242 -57.0801 Z"/>
  </g>
  <g id="Thin-S" transform="matrix(1 0 0 1 809.108 696)">
   <path d="M 47.3145 -61.4746 C 46.0449 -63.8184 38.5742 -68.0176 29.3457 -68.0176 C 19.3359 -68.0176 10.4492 -62.8906 9.76562 -59.375 L 9.76562 -4.54102 C 9.76562 -3.17383 10.6934 -2.53906 11.7676 -2.53906 C 12.6953 -2.53906 13.3301 -2.83203 13.7207 -3.27148 C 15.0879 -5.17578 20.8008 -8.88672 29.3457 -8.88672 C 37.9395 -8.88672 43.7988 -5.27344 45.0684 -3.32031 C 45.5078 -2.88086 46.1914 -2.53906 47.3145 -2.53906 C 48.4375 -2.53906 49.1211 -2.92969 49.5605 -3.32031 C 50.8789 -5.22461 56.6895 -8.88672 65.2344 -8.88672 C 73.8281 -8.88672 79.541 -5.17578 80.8594 -3.27148 C 81.2988 -2.83203 81.9336 -2.53906 82.8613 -2.53906 C 83.9355 -2.53906 84.8633 -3.17383 84.8633 -4.54102 L 84.8633 -59.375 C 84.1797 -62.8906 75.293 -68.0176 65.2344 -68.0176 C 56.0547 -68.0176 48.584 -63.8184 47.3145 -61.4746 Z M 13.0859 -58.3008 C 13.3301 -60.4004 20.2637 -64.8926 29.3457 -64.8926 C 38.4766 -64.8926 45.4102 -60.4004 45.6543 -58.3008 L 45.6543 -7.03125 C 42.4316 -10.3027 36.2793 -11.9629 29.3457 -11.9629 C 22.4609 -11.9629 16.3086 -10.3027 13.0859 -6.98242 Z M 81.543 -58.3008 L 81.543 -6.98242 C 78.3203 -10.3027 72.168 -11.9629 65.2344 -11.9629 C 58.3496 -11.9629 52.1973 -10.3027 48.9746 -7.03125 L 48.9746 -58.3008 C 49.2188 -60.4004 56.1523 -64.8926 65.2344 -64.8926 C 74.3652 -64.8926 81.25 -60.4004 81.543 -58.3008 Z"/>
  </g>
  <g id="Ultralight-S" transform="matrix(1 0 0 1 513.153 696)">
   <path d="M 46.582 -61.1816 C 45.9473 -63.0859 38.3789 -67.5781 28.7109 -67.5781 C 18.8965 -67.5781 9.91211 -62.5488 9.76562 -59.668 L 9.76562 -4.3457 C 9.76562 -3.56445 10.3027 -3.07617 11.0352 -3.07617 C 11.6699 -3.07617 12.1582 -3.32031 12.3535 -3.61328 C 13.3789 -5.56641 19.5801 -9.66797 28.7109 -9.66797 C 37.8418 -9.66797 44.0918 -5.61523 45.1172 -3.66211 C 45.3125 -3.32031 45.8008 -3.07617 46.582 -3.07617 C 47.3145 -3.07617 47.8027 -3.32031 47.998 -3.66211 C 49.0723 -5.61523 55.2734 -9.66797 64.4043 -9.66797 C 73.5352 -9.66797 79.7363 -5.56641 80.7617 -3.61328 C 81.0059 -3.32031 81.4453 -3.07617 82.0801 -3.07617 C 82.8125 -3.07617 83.3496 -3.56445 83.3496 -4.3457 L 83.3496 -59.668 C 83.2031 -62.5488 74.2188 -67.5781 64.4043 -67.5781 C 54.7363 -67.5781 47.2168 -63.0859 46.582 -61.1816 Z M 11.9629 -58.9355 C 12.0117 -60.9375 19.4824 -65.4785 28.7109 -65.4785 C 37.9395 -65.4785 45.4102 -60.9375 45.459 -58.9355 L 45.459 -6.54297 C 42.3828 -10.0098 35.9863 -11.7676 28.7109 -11.7676 C 21.4355 -11.7676 15.0391 -10.0098 11.9629 -6.54297 Z M 81.1523 -58.9355 L 81.1523 -6.54297 C 78.0762 -10.0098 71.6797 -11.7676 64.4043 -11.7676 C 57.1289 -11.7676 50.7324 -10.0098 47.6562 -6.54297 L 47.6562 -58.9355 C 47.7051 -60.9375 55.1758 -65.4785 64.4043 -65.4785 C 73.6328 -65.4785 81.1035 -60.9375 81.1523 -58.9355 Z"/>
  </g>
 </g>
</svg>
