<?xml version="1.0" encoding="utf-8"?>
<!-- Generator: Adobe Illustrator 24.1.3, SVG Export Plug-In . SVG Version: 6.00 Build 0)  -->
<svg version="1.1" id="レイヤー_1" xmlns="http://www.w3.org/2000/svg" xmlns:xlink="http://www.w3.org/1999/xlink" x="0px"
	 y="0px" viewBox="0 0 3300 2200" style="enable-background:new 0 0 3300 2200;" xml:space="preserve">
<style type="text/css">
	.st0{fill:#FFFFFF;}
	.st1{fill:none;stroke:#000000;stroke-width:0.5;}
	.st2{font-family:'Arial-BoldMT';}
	.st3{font-size:12px;}
	.st4{font-family:'ArialMT';}
	.st5{opacity:0.4;fill:#00AEEF;enable-background:new    ;}
	.st6{fill:#27AAE1;}
	.st7{fill:none;stroke:#27AAE1;stroke-width:0.577;}
</style>
<g id="Notes">
	<rect id="artboard" y="0" class="st0" width="3300" height="2200"/>
	<line class="st1" x1="263" y1="292" x2="3036" y2="292"/>
	<text transform="matrix(1 0 0 1 263 322)" class="st2 st3">Weight/Scale Variations</text>
	<text transform="matrix(1 0 0 1 536.0362 322)" class="st4 st3">Ultralight</text>
	<text transform="matrix(1 0 0 1 844.7501 322)" class="st4 st3">Thin</text>
	<text transform="matrix(1 0 0 1 1140.1193 322)" class="st4 st3">Light</text>
	<text transform="matrix(1 0 0 1 1428.8282 322)" class="st4 st3">Regular</text>
	<text transform="matrix(1 0 0 1 1725.2202 322)" class="st4 st3">Medium</text>
	<text transform="matrix(1 0 0 1 2018.2563 322)" class="st4 st3">Semibold</text>
	<text transform="matrix(1 0 0 1 2327.9712 322)" class="st4 st3">Bold</text>
	<text transform="matrix(1 0 0 1 2619.6831 322)" class="st4 st3">Heavy</text>
	<text transform="matrix(1 0 0 1 2918.728 322)" class="st4 st3">Black</text>
	<line class="st1" x1="263" y1="1903" x2="3036" y2="1903"/>
	<g transform="matrix(1 0 0 1 263 1933)">
		<path d="M9.2,0.8c4.3,0,7.9-3.6,7.9-7.9S13.5-15,9.2-15s-7.9,3.6-7.9,7.9C1.4-2.7,5,0.8,9.2,0.8z M9.2-0.7c-3.5,0-6.4-2.8-6.4-6.4
			s2.8-6.4,6.4-6.4s6.4,2.8,6.4,6.4C15.7-3.5,12.8-0.7,9.2-0.7z M9.2-3.4c0.5,0,0.7-0.3,0.7-0.8v-2.1h2.2C12.7-6.3,13-6.6,13-7
			c0-0.5-0.3-0.7-0.8-0.7H10V-10c0-0.5-0.3-0.8-0.7-0.8S8.5-10.5,8.5-10v2.2H6.3C5.8-7.8,5.4-7.5,5.4-7s0.4,0.7,0.8,0.7h2.2v2.1
			C8.5-3.8,8.8-3.4,9.2-3.4z"/>
	</g>
	<g transform="matrix(1 0 0 1 281.506 1933)">
		<path d="M11.7,2.9c5.4,0,10-4.5,10-10c0-5.4-4.5-10-10-10c-5.4,0-10,4.5-10,10C1.7-1.6,6.3,2.9,11.7,2.9z M11.7,1.2
			c-4.6,0-8.3-3.7-8.3-8.3s3.7-8.3,8.3-8.3S20-11.7,20-7.1C20-2.4,16.3,1.2,11.7,1.2z M11.7-2.4c0.5,0,0.8-0.4,0.8-0.9v-2.9h3.1
			c0.5,0,0.9-0.3,0.9-0.8s-0.4-0.8-0.9-0.8h-3.1v-3.1c0-0.6-0.3-0.9-0.8-0.9s-0.8,0.4-0.8,0.9v3.1h-3c-0.6-0.1-1,0.2-1,0.8
			c0,0.5,0.4,0.8,0.9,0.8h3v2.9C10.9-2.8,11.2-2.4,11.7-2.4z"/>
	</g>
	<g transform="matrix(1 0 0 1 304.924 1933)">
		<path d="M15,5.7c7,0,12.7-5.8,12.7-12.7c0-7-5.8-12.7-12.7-12.7C8-19.8,2.3-14,2.3-7C2.3-0.1,8,5.7,15,5.7z M15,3.9
			C8.9,3.9,4.1-1,4.1-7S8.9-17.9,15-17.9c6,0,10.9,4.9,10.9,10.9S21,3.9,15,3.9z M15-1.1c0.6,0,0.9-0.4,0.9-1v-4.1h4.2
			c0.6,0,1-0.3,1-0.9S20.7-8,20.1-8h-4.2v-4.2c0-0.6-0.4-1-0.9-1c-0.6,0-0.9,0.4-0.9,1V-8H9.8c-0.6,0-1,0.3-1,0.9s0.4,0.9,1,0.9H14
			v4.1C14.1-1.5,14.4-1.1,15-1.1z"/>
	</g>
	<text transform="matrix(1 0 0 1 263 1953)" class="st2 st3">Design Variations</text>
	<text transform="matrix(1 0 0 1 263 1971)" class="st4 st3">Symbols are supported in up to nine weights and three scales.</text>
	<text transform="matrix(1 0 0 1 263 1989)" class="st4 st3">For optimal layout with text and other symbols, vertically align</text>
	<text transform="matrix(1 0 0 1 263 2007)" class="st4 st3">symbols with the adjacent text.</text>
	<rect x="776" y="1919" class="st5" width="3" height="14"/>
	<g transform="matrix(1 0 0 1 779 1933)">
		<path d="M10.5,0h1.8L7.2-14.1H5.4L0.2,0H2l1.4-4H9L10.5,0z M6.3-12L6.3-12l2.3,6.4H4L6.3-12z"/>
	</g>
	<rect x="791.6" y="1919" class="st5" width="3" height="14"/>
	<text transform="matrix(1 0 0 1 776 1953)" class="st2 st3">Margins</text>
	<text transform="matrix(1 0 0 1 776 1971)" class="st4 st3">Leading and trailing margins on the left and right side of each symbol</text>
	<text transform="matrix(1 0 0 1 776 1989)" class="st4 st3">can be adjusted by modifying the width of the blue rectangles.</text>
	<text transform="matrix(1 0 0 1 776 2007)" class="st4 st3">Modifications are automatically applied proportionally to all</text>
	<text transform="matrix(1 0 0 1 776 2025)" class="st4 st3">scales and weights.</text>
	<g transform="matrix(1 0 0 1 1289 1933)">
		<path d="M2.8,3.1l1.5,1.5C5.1,5.4,6.1,5.4,7,4.4L17.3-6.7c0.4,0.3,0.8,0.3,1.3,0.2l1-0.2L20.3-6v0.5c-0.1,0.5,0.1,1,0.5,1.5
			l0.8,0.8c0.5,0.5,1.2,0.5,1.6,0.1l3.3-3.3C27-6.9,27-7.5,26.5-8l-0.8-0.8c-0.5-0.5-0.9-0.7-1.4-0.6l-0.5,0.1L23.1-10l0.3-1.1
			c0.1-0.6,0-1-0.6-1.6l-2.4-2.4c-3.5-3.5-8.1-3.4-11.2-0.3C8.8-15,8.7-14.4,9-14c0.2,0.4,0.7,0.6,1.4,0.4c1.5-0.4,3-0.3,4.5,0.7
			l-0.6,1.6c-0.2,0.6-0.2,1.1,0,1.5L3,0.4C2.1,1.3,2,2.3,2.8,3.1z M10.7-15.1c2.7-2,6-1.7,8.4,0.7l2.6,2.6c0.2,0.2,0.3,0.4,0.2,0.7
			l-0.4,1.6L23.1-8H24c0.3,0,0.4,0,0.6,0.2l0.6,0.6l-2.8,2.7l-0.6-0.6c-0.2-0.2-0.2-0.3-0.2-0.6l0.1-1l-1.6-1.6L18.5-8
			c-0.3,0.1-0.4,0.1-0.7-0.2l-2.2-2.2c-0.2-0.2-0.3-0.4-0.1-0.7l0.9-2.3c-1.6-1.5-3.7-2.4-5.8-1.7c-0.1,0-0.2,0-0.2,0
			C10.6-15,10.6-15.1,10.7-15.1z M4.1,2.4c-0.5-0.5-0.3-0.8,0-1.1l11-10.1l1.2,1.2L6.2,3.3c-0.3,0.3-0.7,0.4-1.1,0L4.1,2.4z"/>
	</g>
	<text transform="matrix(1 0 0 1 1289 1953)" class="st2 st3">Exporting</text>
	<text transform="matrix(1 0 0 1 1289 1971)" class="st4 st3">Symbols should be outlined when exporting to ensure the</text>
	<text transform="matrix(1 0 0 1 1289 1989)" class="st4 st3">design is preserved when submitting to Xcode.</text>
	<text id="template-version" transform="matrix(1 0 0 1 2958.8496 1933)" class="st4 st3">Template v.1.0</text>
	<text transform="matrix(1 0 0 1 2922.6035 1951)" class="st4 st3">Generated from book</text>
	<text transform="matrix(1 0 0 1 2921.9238 1969)" class="st4 st3">Typeset at 100 points</text>
	<text transform="matrix(1 0 0 1 263 726)" class="st4 st3">Small</text>
	<text transform="matrix(1 0 0 1 263 1156)" class="st4 st3">Medium</text>
	<text transform="matrix(1 0 0 1 263 1586)" class="st4 st3">Large</text>
</g>
<g id="Guides">
	<g id="H-reference" transform="matrix(1 0 0 1 339 696)">
		<path class="st6" d="M54.9,0h2.7l-27-70.5h-2.5L1,0h2.7L13-24.5h32.8L54.9,0z M29.2-67.1h0.2l15.4,40.4h-31L29.2-67.1z"/>
	</g>
	<line id="Baseline-S" class="st7" x1="263" y1="696" x2="3036" y2="696"/>
	<line id="Capline-S" class="st7" x1="263" y1="625.5" x2="3036" y2="625.5"/>
	<g id="H-reference_1_" transform="matrix(1 0 0 1 339 1126)">
		<path class="st6" d="M54.9,0h2.7l-27-70.5h-2.5L1,0h2.7L13-24.5h32.8L54.9,0z M29.2-67.1h0.2l15.4,40.4h-31L29.2-67.1z"/>
	</g>
	<line id="Baseline-M" class="st7" x1="263" y1="1126" x2="3036" y2="1126"/>
	<line id="Capline-M" class="st7" x1="263" y1="1055.5" x2="3036" y2="1055.5"/>
	<g id="H-reference_2_" transform="matrix(1 0 0 1 339 1556)">
		<path class="st6" d="M54.9,0h2.7l-27-70.5h-2.5L1,0h2.7L13-24.5h32.8L54.9,0z M29.2-67.1h0.2l15.4,40.4h-31L29.2-67.1z"/>
	</g>
	<line id="Baseline-L" class="st7" x1="263" y1="1556" x2="3036" y2="1556"/>
	<line id="Capline-L" class="st7" x1="263" y1="1485.5" x2="3036" y2="1485.5"/>
	<rect id="left-margin" x="1387" y="1030.8" class="st5" width="12.5" height="119.3"/>
	<rect id="right-margin" x="1500.3" y="1030.8" class="st5" width="12.5" height="119.3"/>
</g>
<g id="Symbols">
	<g id="Black-L" transform="matrix(1 0 0 1 2846.32 1556)">
		<path d="M87.1-83.5c-6.4-6.6-16.6-12.1-30.4-12.1c-19.5,0-35.2,10.4-40.6,20.7v87.2c0,9,5.9,12.3,12.3,12.3c4.4,0,6.9-1.2,9.7-3.3
			c3.7-2.7,9.3-5.8,18.6-5.8c9.4,0,16.2,3.1,19.6,5.4c2.7,1.8,5.7,3.7,10.8,3.7c5.2,0,8.2-1.9,10.8-3.7c3.5-2.2,10.2-5.4,19.6-5.4
			c9.3,0,14.9,3.1,18.6,5.8c2.8,2.1,5.3,3.3,9.7,3.3c6.3,0,12.3-3.3,12.3-12.3v-87.2c-5.4-10.3-21.1-20.7-40.6-20.7
			C103.7-95.6,93.6-90.1,87.1-83.5z M36.9-67.8c2.2-3.7,9.3-8.7,19.8-8.7s18.1,5.1,20,8.7V1.1C71-2.6,63.9-4,56.7-4
			S42.6-2.6,36.9,1.3V-67.8z M137.3-67.8v69c-5.7-3.9-12.5-5.3-19.7-5.3s-14.4,1.4-20,5.1v-68.8c1.9-3.7,9.5-8.7,20-8.7
			S135.1-71.4,137.3-67.8z"/>
	</g>
	<g id="Heavy-L" transform="matrix(1 0 0 1 2551.26 1556)">
		<path d="M85.4-82.5C79.5-88.8,69-94.4,55.1-94.4c-18.9,0-34.3,10.1-39.1,19.7v87.5c0,7.8,5.1,10.7,10.7,10.7c3.9,0,6.1-1.1,8.6-3
			c3.5-2.7,9.7-6.2,19.7-6.2c10.2,0,17.3,3.5,20.6,5.9c2.3,1.7,5,3.3,9.7,3.3c4.6,0,7.3-1.7,9.7-3.3c3.4-2.3,10.5-5.9,20.6-5.9
			s16.3,3.5,19.8,6.2c2.5,1.9,4.7,3,8.6,3c5.6,0,10.6-2.9,10.6-10.7v-87.5c-4.7-9.6-20.1-19.7-39.1-19.7
			C101.9-94.4,91.3-88.8,85.4-82.5z M34-68.6c2-3.7,9.6-9.3,21.1-9.3s19.6,5.6,21.3,9.3V3.1c-5.7-4-13.4-5.6-21.3-5.6
			S39.7-0.8,34,3.3V-68.6z M136.9-68.6V3.3c-5.7-4.1-13.2-5.8-21.1-5.8s-15.6,1.7-21.3,5.6v-71.7c1.7-3.7,9.9-9.3,21.3-9.3
			S134.9-72.3,136.9-68.6z"/>
	</g>
	<g id="Bold-L" transform="matrix(1 0 0 1 2256.38 1556)">
		<path d="M83.6-81.3C78.4-87.4,67.3-93,53.4-93C35.1-93,20.1-83.4,16-74.4v87.9c0,6.5,4.2,9,8.9,9c3.4,0,5.3-1,7.4-2.6
			c3.4-2.9,10.2-6.8,21-6.8C64.2,13.1,72,17,75,19.6c2,1.5,4.3,2.9,8.4,2.9s6.4-1.5,8.4-2.9c3.2-2.5,10.8-6.5,21.7-6.5
			s17.7,4,21,6.8c2.1,1.6,4.1,2.6,7.4,2.6c4.7,0,8.9-2.5,8.9-9v-87.9c-4.1-8.9-19-18.6-37.4-18.6C99.9-93,88.8-87.4,83.6-81.3z
			 M30.8-69.6c1.7-3.7,10.1-9.8,22.6-9.8s21.3,6.1,22.8,9.8v75c-5.8-4.2-14-6.2-22.8-6.2c-8.7,0-16.9,2-22.6,6.4
			C30.8,5.6,30.8-69.6,30.8-69.6z M136.4-69.6V5.6c-5.8-4.4-13.9-6.4-22.7-6.4c-8.7,0-17,2-22.8,6.2v-75c1.4-3.7,10.3-9.8,22.8-9.8
			C126.3-79.4,134.7-73.3,136.4-69.6z"/>
	</g>
	<g id="Medium-L" transform="matrix(1 0 0 1 1665.21 1556)">
		<path d="M81.3-80c-4.4-5.6-16.1-11.4-30-11.4c-17.6,0-32.1,9.1-35.3,17.2v88.4c0,4.9,3.2,6.8,6.7,6.8c2.7,0,4.3-0.8,6-2.1
			c3.3-3,10.8-7.5,22.6-7.5c11.9,0,20.2,4.4,23.1,7.2c1.6,1.3,3.5,2.4,6.9,2.4s5.3-1.3,6.9-2.4c3.1-2.7,11.2-7.2,23-7.2
			c11.9,0,19.4,4.5,22.7,7.5c1.6,1.3,3.2,2.1,6,2.1c3.6,0,6.7-2,6.7-6.8v-88.4c-3.2-8.1-17.7-17.2-35.4-17.2
			C97.5-91.4,85.7-85.6,81.3-80z M26.9-70.8c1.3-3.8,10.7-10.5,24.5-10.5S74.8-74.5,76-70.8v79c-5.8-4.6-14.8-7-24.6-7
			c-9.7,0-18.7,2.4-24.5,7.2C26.9,8.4,26.9-70.8,26.9-70.8z M135.8-70.8V8.4C130,3.7,121,1.3,111.3,1.3s-18.7,2.4-24.5,7v-79
			c1.2-3.7,10.7-10.5,24.5-10.5C125.1-81.3,134.5-74.5,135.8-70.8z"/>
	</g>
	<g id="Light-L" transform="matrix(1 0 0 1 1074.42 1556)">
		<path d="M78.7-78.7c-2.8-4.4-15-10.9-29.7-10.9c-16.7,0-31.2,8.6-33,15v89.7c0,2.9,1.9,4.2,4.1,4.2c1.9,0,3-0.5,4-1.5
			C26.7,14.6,35.5,9,49,9s22.8,5.5,25.1,8.6c0.9,0.9,2.2,1.6,4.5,1.6c2.2,0,3.6-0.8,4.5-1.6c2.4-3,11.6-8.6,25.1-8.6
			s22.4,5.6,25,8.7c0.9,0.9,2.1,1.5,3.9,1.5c2.2,0,4.1-1.3,4.1-4.2v-89.7c-1.7-6.4-16.2-15-33-15C93.7-89.6,81.5-83.2,78.7-78.7z
			 M22.7-72.6c0.7-3.6,11.5-10.9,26.3-10.9s25.7,7.4,26.4,10.9v83.3C69.9,5.6,60.1,2.8,49,2.8c-11,0-20.8,2.7-26.3,8V-72.6z
			 M134.7-72.6v83.4c-5.5-5.3-15.3-8-26.4-8c-11,0-20.8,2.7-26.3,7.9v-83.3c0.6-3.5,11.5-10.9,26.3-10.9
			C123.2-83.4,134-76.1,134.7-72.6z"/>
	</g>
	<g id="Thin-L" transform="matrix(1 0 0 1 779.542 1556)">
		<path d="M76.9-78.1c-1.2-3.2-13.6-10.5-29.4-10.5c-16.2,0-31,8.3-31.4,13.2v91c0,1.4,1,2.3,2.3,2.3c1.1,0,2-0.4,2.3-1
			c1.8-3.2,11.9-9.8,26.8-9.8s25,6.5,26.8,9.8c0.4,0.5,1.2,1,2.6,1s2.2-0.4,2.6-1c1.8-3.3,11.9-9.8,26.8-9.8s25,6.6,26.8,9.8
			c0.4,0.6,1.2,1,2.3,1c1.3,0,2.3-0.9,2.3-2.3v-91c-0.4-4.9-15.2-13.2-31.4-13.2C90.5-88.6,78.1-81.3,76.9-78.1z M20-74.1
			c0.1-3.3,12.3-10.8,27.4-10.8c15.2,0,27.3,7.5,27.4,10.8v86c-5.1-5.7-15.5-8.5-27.4-8.5S25,6.2,20,11.9V-74.1z M133.7-74.1v86
			c-5.1-5.7-15.5-8.5-27.4-8.5s-22.4,2.8-27.4,8.5v-86c0.1-3.3,12.3-10.8,27.4-10.8C121.5-84.9,133.6-77.4,133.7-74.1z"/>
	</g>
	<g id="Ultralight-L" transform="matrix(1 0 0 1 483.759 1556)">
		<path d="M75.9-77.7C75.5-80.3,63-88.1,46.6-88.1C30.7-88.1,15.7-80,16-75.8v91.7c0,0.7,0.5,1.3,1.3,1.3s1.5-0.3,1.6-0.7
			C20.4,13.2,31,6.1,46.6,6.1s26.2,7.1,27.7,10.4c0.1,0.4,0.7,0.6,1.6,0.6s1.5-0.2,1.6-0.6C79,13.1,89.6,6.1,105.2,6.1
			s26.3,7.2,27.7,10.4c0.1,0.4,0.7,0.7,1.5,0.7s1.3-0.6,1.3-1.3v-91.7c0.3-4.2-14.6-12.3-30.6-12.3C88.9-88.1,76.4-80.3,75.9-77.7z
			 M18.7-74.9c-0.1-3.1,12.6-10.7,28-10.7s28.2,7.6,28,10.7v87.4c-4.9-5.9-15.6-8.8-28-8.8s-23.1,2.9-28,8.8
			C18.7,12.5,18.7-74.9,18.7-74.9z M133.3-74.9v87.4c-4.9-5.9-15.7-8.8-28-8.8c-12.4,0-23.1,2.9-28,8.8v-87.4
			c-0.1-3.2,12.6-10.7,28-10.7C120.6-85.6,133.4-78,133.3-74.9z"/>
	</g>
	<g id="Black-M" transform="matrix(1 0 0 1 2864.43 1126)">
		<path d="M69-73.7c-5.2-5-12.5-9.5-23.7-9.5c-15.6,0-28.4,8.4-32.8,16.6V1c0,8,5.2,10.9,10.9,10.9c3.8,0,5.9-1.1,8.3-2.8
			c2.7-1.9,6.8-4.2,13.6-4.2c7,0,12,2.3,14.6,4c2.2,1.5,4.8,3.1,9.2,3.1c4.4,0,6.9-1.6,9.1-3.1c2.5-1.6,7.6-4,14.6-4
			c6.8,0,10.9,2.3,13.6,4.2c2.4,1.8,4.6,2.8,8.3,2.8c5.7,0,10.9-2.9,10.9-10.9v-67.6c-4.4-8.2-17.2-16.6-32.8-16.6
			C81.5-83.2,74.2-78.7,69-73.7z M31.4-59.9c1.8-2.7,6.9-6.1,13.9-6.1s12.7,3.3,14.3,6.1v50.5c-4.2-2.7-9.3-3.5-14.3-3.5
			c-4.9,0-9.7,0.8-13.9,3.6V-59.9z M106.6-59.9v50.6c-4.2-2.8-9-3.6-13.9-3.6s-10,0.8-14.3,3.5v-50.5C80-62.6,85.6-66,92.7-66
			C99.7-66,104.7-62.6,106.6-59.9z"/>
	</g>
	<g id="Heavy-M" transform="matrix(1 0 0 1 2569.16 1126)">
		<path d="M67.5-72.8c-4.8-4.9-12.6-9.3-23.6-9.3c-15.1,0-27.4,8.1-31.5,15.9V1.5c0,7,4.5,9.6,9.5,9.6c3.4,0,5.3-1,7.5-2.5
			C32.2,6.5,36.6,4,43.9,4c7.4,0,12.7,2.5,15.3,4.3c2.1,1.4,4.3,2.8,8.3,2.8s6.2-1.4,8.3-2.8C78.4,6.5,83.7,4,91.1,4
			c7.3,0,11.8,2.5,14.5,4.5c2.1,1.6,4.1,2.5,7.5,2.5c5,0,9.5-2.6,9.5-9.6v-67.7c-4-7.8-16.4-15.9-31.5-15.9
			C80.1-82.1,72.4-77.7,67.5-72.8z M28.8-60.5c1.7-2.8,7.2-6.6,15.2-6.6s14,3.8,15.4,6.6v53.2c-4.3-2.9-9.9-4-15.4-4
			s-10.8,1-15.2,4.1V-60.5z M106.3-60.5v53.3c-4.3-3-9.6-4.1-15.2-4.1s-11.1,1-15.4,4v-53.2c1.4-2.8,7.5-6.6,15.4-6.6
			S104.6-63.3,106.3-60.5z"/>
	</g>
	<g id="Bold-M" transform="matrix(1 0 0 1 2274.06 1126)">
		<path d="M65.9-71.7c-4.5-4.8-12.7-9.2-23.5-9.2c-14.6,0-26.4,7.7-30,15.1V2.1c0,5.9,3.8,8.1,8,8.1c2.9,0,4.6-0.8,6.5-2.2
			c2.8-2.2,7.6-5,15.5-5c8,0,13.7,2.8,16.2,4.7c1.8,1.3,3.8,2.5,7.3,2.5s5.5-1.3,7.3-2.5C75.8,5.8,81.4,3,89.4,3s12.8,2.8,15.5,4.9
			c1.9,1.4,3.6,2.2,6.5,2.2c4.2,0,8-2.2,8-8.1v-67.9C115.8-73.3,104-81,89.4-81C78.7-80.9,70.4-76.5,65.9-71.7z M25.8-61.2
			c1.5-2.9,7.6-7.3,16.6-7.3c9.1,0,15.5,4.4,16.8,7.3v56.1c-4.4-3.1-10.5-4.4-16.8-4.4c-6.2,0-12.2,1.4-16.6,4.6
			C25.8-4.9,25.8-61.2,25.8-61.2z M106-61.2V-5c-4.4-3.2-10.4-4.6-16.7-4.6c-6.2,0-12.3,1.4-16.7,4.4v-56.1
			c1.3-2.9,7.7-7.3,16.7-7.3C98.4-68.5,104.5-64.1,106-61.2z"/>
	</g>
	<g id="Medium-M" transform="matrix(1 0 0 1 1682.59 1126)">
		<path d="M64-70.4c-4-4.7-12.9-8.9-23.3-8.9c-13.9,0-25.2,7.2-28.2,14.1V2.9c0,4.4,2.9,6.2,6.1,6.2c2.4,0,3.9-0.7,5.4-1.9
			c2.8-2.3,8.1-5.4,16.7-5.4s14.7,3,17.2,5.1C59.3,8,61,9,64,9s4.6-1.1,6.2-2.1c2.6-2,8.5-5.1,17.1-5.1s14,3.2,16.7,5.4
			c1.5,1.1,2.9,1.9,5.3,1.9c3.2,0,6.2-1.7,6.2-6.2v-68.1c-3-6.8-14.3-14.1-28.2-14.1C76.9-79.3,68-75.1,64-70.4z M22.3-62.1
			c1.2-3,8-8.1,18.3-8.1C51-70.2,58-65,59-62.1v59.7c-4.6-3.3-11.3-5-18.4-5S26.9-5.7,22.3-2.2V-62.1z M105.6-62.1v59.9
			C101-5.7,94.4-7.4,87.3-7.4s-13.8,1.7-18.4,5v-59.7c1.1-2.9,8-8.1,18.4-8.1C97.7-70.2,104.3-65.1,105.6-62.1z"/>
	</g>
	<g id="Light-M" transform="matrix(1 0 0 1 1091.51 1126)">
		<path d="M61.6-69.1c-2.7-3.9-12.1-8.6-23.1-8.6c-13.1,0-24.3,6.7-26.1,12.3v69c0,2.7,1.8,3.9,3.8,3.9c1.7,0,2.7-0.5,3.6-1.3
			c2.2-2.4,8.7-6.4,18.7-6.4S55.3,3.7,57.4,6c0.9,0.8,2.1,1.5,4.2,1.5s3.2-0.8,4.2-1.5c2.1-2.2,8.9-6.2,18.9-6.2s16.5,4,18.7,6.4
			c0.9,0.8,2,1.3,3.6,1.3c2.1,0,3.9-1.2,3.9-3.9v-69.1c-1.9-5.5-13-12.2-26.2-12.2C73.7-77.7,64.3-73,61.6-69.1z M18.5-63.6
			c0.7-2.9,8.7-8.4,20-8.4c11.4,0,19.4,5.6,20.1,8.4V0c-4.4-3.8-11.8-5.9-20.1-5.9c-8.2,0-15.7,2.1-20,6V-63.6z M104.7-63.6V0.1
			c-4.4-4-11.8-6-20.1-6c-8.2,0-15.7,2.1-20,5.9v-63.6c0.6-2.8,8.7-8.4,20-8.4C96-72.1,104-66.5,104.7-63.6z"/>
	</g>
	<g id="Thin-M" transform="matrix(1 0 0 1 796.461 1126)">
		<path d="M60-68.6c-1.3-2.8-10.8-8.3-22.9-8.3c-12.7,0-24.1,6.4-24.7,10.6V4.1c0,1.4,1,2.1,2.1,2.1c1,0,1.8-0.3,2.2-0.8
			C18.4,2.9,25.9-2,37.1-2S56,2.8,57.5,5.3C58,5.8,58.7,6.2,60,6.2s2-0.4,2.4-0.9C64,2.9,71.6-2,82.8-2s18.8,4.9,20.4,7.4
			c0.4,0.5,1.1,0.8,2.1,0.8c1.2,0,2.1-0.7,2.1-2.1v-70.3c-0.5-4.2-12-10.6-24.7-10.6C70.8-76.8,61.2-71.3,60-68.6z M16.1-65
			c0.2-2.6,9.4-8.3,21-8.3c11.7,0,20.8,5.8,21,8.3V1c-4-4.3-12-6.4-21-6.4s-17,2.1-21,6.5C16.1,1.1,16.1-65,16.1-65z M103.9-65V1.1
			c-4-4.3-12-6.5-21-6.5s-17,2.1-21,6.4v-66c0.2-2.6,9.4-8.3,21-8.3C94.5-73.4,103.6-67.6,103.9-65z"/>
	</g>
	<g id="Ultralight-M" transform="matrix(1 0 0 1 500.58 1126)">
		<path d="M59.1-68.3c-0.6-2.2-10.3-8.1-22.8-8.1s-24,6.3-23.9,9.8V4.2c0,0.8,0.5,1.3,1.3,1.3c0.7,0,1.3-0.2,1.4-0.6
			C16.3,2.4,24.4-3,36.3-3s20,5.3,21.2,7.9c0.2,0.3,0.7,0.6,1.6,0.6c0.8,0,1.4-0.2,1.6-0.6C61.9,2.3,70-3,81.9-3s20,5.4,21.2,7.9
			c0.1,0.3,0.7,0.6,1.4,0.6c0.8,0,1.3-0.5,1.3-1.3v-70.8c0-3.4-11.5-9.8-23.9-9.8C69.4-76.4,59.7-70.5,59.1-68.3z M14.8-65.7
			c0-2.5,9.7-8.3,21.5-8.3c11.9,0,21.6,5.9,21.5,8.3V1.6C54-2.9,45.7-5.2,36.3-5.2S18.6-2.9,14.8,1.6V-65.7z M103.4-65.7V1.6
			c-3.9-4.5-12.1-6.8-21.5-6.8c-9.5,0-17.7,2.3-21.6,6.8v-67.3c0-2.5,9.7-8.3,21.6-8.3C93.7-74.1,103.4-68.2,103.4-65.7z"/>
	</g>
	<g id="Black-S" transform="matrix(1 0 0 1 2879.44 696)">
		<path d="M54-65.3c-4.1-3.9-9.8-7.4-18.6-7.4c-12.2,0-22.2,6.6-25.6,13v52.9c0,6.2,4.1,8.5,8.4,8.5c2.9,0,4.6-0.8,6.5-2.2
			C26.8-2,30-3.8,35.4-3.8c5.5,0,9.4,1.9,11.4,3.1c1.8,1.2,3.7,2.4,7.1,2.4c3.4,0,5.4-1.2,7.1-2.4c2-1.3,6-3.1,11.4-3.1
			S81-2,83.1-0.5c1.9,1.4,3.6,2.2,6.5,2.2C94,1.7,98-0.6,98-6.8v-52.9c-3.5-6.4-13.4-13-25.6-13C63.8-72.8,58-69.2,54-65.3z
			 M24.4-54.6c1.4-2.1,5.4-4.8,11-4.8s10,2.6,11.2,4.8v39.7c-3.3-2.1-7.3-2.8-11.2-2.8s-7.7,0.6-11,2.8
			C24.4-14.9,24.4-54.6,24.4-54.6z M83.5-54.6v39.8c-3.3-2.2-7.1-2.8-11-2.8s-7.9,0.6-11.2,2.8v-39.7c1.2-2.1,5.7-4.8,11.2-4.8
			C78.1-59.4,82.1-56.7,83.5-54.6z"/>
	</g>
	<g id="Heavy-S" transform="matrix(1 0 0 1 2583.71 696)">
		<path d="M53-64.6c-3.9-4-10-7.3-18.5-7.3C22.6-72,13-65.6,9.8-59.4v53c0,5.5,3.6,7.6,7.5,7.6c2.7,0,4.2-0.8,6-2
			c2.2-1.6,5.6-3.5,11.2-3.5c5.8,0,9.9,1.9,11.9,3.3C48,0,49.8,1.1,53,1.1s5-1.1,6.6-2.2c2.1-1.3,6.1-3.3,11.9-3.3
			c5.7,0,9.1,1.9,11.2,3.5c1.8,1.2,3.3,2,6,2c3.9,0,7.5-2.1,7.5-7.6v-53C93-65.6,83.3-72,71.5-72C63-72,56.9-68.6,53-64.6z M22.6-55
			c1.4-2.2,5.6-5.2,11.9-5.2s10.9,3,12.1,5.2v41.6c-3.5-2.2-7.8-3.1-12.1-3.1s-8.4,0.8-11.9,3.2V-55z M83.3-55v41.7
			c-3.4-2.3-7.6-3.2-11.9-3.2s-8.6,0.8-12.1,3.1V-55c1.1-2.2,5.8-5.2,12.1-5.2S82-57.2,83.3-55z"/>
	</g>
	<g id="Bold-S" transform="matrix(1 0 0 1 2288.07 696)">
		<path d="M51.9-63.9c-3.8-4-10.2-7.2-18.4-7.2C22-71.1,12.8-65,9.8-59v53c0,4.7,3.1,6.5,6.5,6.5c2.4,0,3.8-0.7,5.3-1.8
			C23.9-3,27.5-5,33.5-5s10.3,2,12.4,3.5c1.5,1,3.1,2.1,6,2.1s4.5-1.1,6-2.1C60.1-2.9,64.3-5,70.3-5s9.6,2,11.9,3.7
			c1.6,1.1,2.9,1.8,5.4,1.8C90.9,0.5,94-1.3,94-6v-53c-3-6.1-12.2-12.1-23.7-12.1C62.1-71.1,55.7-67.8,51.9-63.9z M20.6-55.4
			c1.3-2.3,5.8-5.8,12.9-5.8s11.9,3.5,13,5.8v43.6c-3.6-2.3-8.2-3.4-13-3.4s-9.3,1-12.9,3.5V-55.4z M83.2-55.4v43.8
			c-3.6-2.5-8.1-3.5-12.9-3.5s-9.4,1-13,3.4v-43.6c1.1-2.3,5.9-5.8,13-5.8S82-57.7,83.2-55.4z"/>
	</g>
	<g id="Medium-S" transform="matrix(1 0 0 1 1695.97 696)">
		<path d="M50.6-62.9C47-66.9,40.1-70,32.3-70c-11,0-19.8,5.7-22.5,11.5v53c0,3.9,2.5,5.3,5.3,5.3c2.1,0,3.3-0.6,4.6-1.6
			c2.4-1.8,6.2-4,12.6-4s10.9,2.1,13,3.7c1.3,1,2.7,1.9,5.3,1.9s4-1,5.3-1.9c2.2-1.5,6.6-3.7,13-3.7c6.3,0,10.3,2.2,12.6,4
			c1.3,1,2.5,1.6,4.6,1.6c2.7,0,5.3-1.5,5.3-5.3v-53C88.7-64.3,80-70,68.9-70C61-70,54.2-66.9,50.6-62.9z M18.2-55.9
			c1.1-2.4,6.1-6.3,14.1-6.3s13.1,4,14.1,6.3v46.1c-3.7-2.5-8.8-3.8-14.1-3.8c-5.4,0-10.4,1.3-14.1,4C18.2-9.6,18.2-55.9,18.2-55.9z
			 M83-55.9v46.2c-3.7-2.6-8.7-4-14.1-4s-10.4,1.3-14.2,3.8V-56c1-2.4,6.1-6.3,14.2-6.3C77-62.2,81.9-58.3,83-55.9z"/>
	</g>
	<g id="Light-S" transform="matrix(1 0 0 1 1104.38 696)">
		<path d="M48.8-62c-2.5-3.4-9.8-6.8-18.2-6.8c-10.4,0-19.1,5.4-20.8,10.1v53.8c0,2.5,1.7,3.5,3.5,3.5c1.5,0,2.3-0.4,3.2-1.2
			c2-1.9,6.7-4.7,14.2-4.7s12.6,2.8,14.4,4.5c0.9,0.7,2,1.4,3.8,1.4s2.9-0.7,3.8-1.4c1.9-1.7,6.9-4.5,14.4-4.5
			c7.4,0,12.2,2.9,14.2,4.7c0.9,0.7,1.8,1.2,3.2,1.2c1.8,0,3.5-1,3.5-3.5v-53.8c-2-4.7-10.7-10.1-21.1-10.1
			C58.5-68.8,51.3-65.3,48.8-62z M15.2-57.1c0.7-2.3,6.6-6.6,15.4-6.6s14.8,4.3,15.4,6.6V-8c-3.5-2.8-9.2-4.4-15.4-4.4
			s-11.9,1.6-15.4,4.6C15.2-7.8,15.2-57.1,15.2-57.1z M82.3-57.1v49.3c-3.5-3-9.2-4.6-15.4-4.6S55-10.8,51.5-8v-49.1
			c0.6-2.3,6.6-6.6,15.4-6.6C75.7-63.7,81.6-59.4,82.3-57.1z"/>
	</g>
	<g id="Thin-S" transform="matrix(1 0 0 1 809.108 696)">
		<path d="M47.3-61.5c-1.3-2.3-8.7-6.5-18-6.5c-10,0-18.9,5.1-19.6,8.6v54.8c0,1.4,0.9,2,2,2c0.9,0,1.6-0.3,2-0.7
			c1.4-1.9,7.1-5.6,15.6-5.6c8.6,0,14.5,3.6,15.7,5.6c0.4,0.4,1.1,0.8,2.2,0.8c1.1,0,1.8-0.4,2.2-0.8c1.3-1.9,7.1-5.6,15.7-5.6
			s14.3,3.7,15.6,5.6c0.4,0.4,1.1,0.7,2,0.7c1.1,0,2-0.6,2-2v-54.8C84-62.9,75.1-68,65.1-68C56.1-68,48.6-63.8,47.3-61.5z
			 M13.1-58.3c0.2-2.1,7.2-6.6,16.3-6.6s16.1,4.5,16.3,6.6V-7c-3.2-3.3-9.4-4.9-16.3-4.9s-13,1.7-16.3,5
			C13.1-6.9,13.1-58.3,13.1-58.3z M81.5-58.3V-7c-3.2-3.3-9.4-5-16.3-5s-13,1.7-16.3,4.9v-51.3c0.2-2.1,7.2-6.6,16.3-6.6
			C74.4-64.9,81.2-60.4,81.5-58.3z"/>
	</g>
	<g id="Ultralight-S" transform="matrix(1 0 0 1 513.153 696)">
		<path d="M46.6-61.2c-0.6-1.9-8.2-6.4-17.9-6.4c-9.8,0-18.8,5-18.9,7.9v55.3c0,0.8,0.5,1.3,1.3,1.3c0.6,0,1.1-0.2,1.3-0.5
			c1-2,7.2-6.1,16.4-6.1c9.1,0,15.4,4.1,16.4,6c0.2,0.3,0.7,0.6,1.5,0.6c0.7,0,1.2-0.2,1.4-0.6c1.1-2,7.3-6,16.4-6
			s15.3,4.1,16.4,6.1c0.2,0.3,0.7,0.5,1.3,0.5c0.7,0,1.3-0.5,1.3-1.3v-55.3c-0.1-2.9-9.1-7.9-18.9-7.9
			C54.7-67.6,47.2-63.1,46.6-61.2z M12-58.9c0-2,7.5-6.5,16.7-6.5s16.7,4.5,16.7,6.5v52.4c-3.1-3.5-9.5-5.2-16.7-5.2S15-10,12-6.5
			V-58.9z M81.2-58.9v52.4c-3.1-3.5-9.5-5.2-16.7-5.2c-7.3,0-13.7,1.8-16.7,5.2v-52.4c0-2,7.5-6.5,16.7-6.5S81.1-60.9,81.2-58.9z"/>
	</g>
	<g id="Semibold-M" transform="matrix(1 0 0 1 1978.47 1126)">
		<path d="M64.8-71.9c-4.2-4.7-12.8-9-23.4-9c-14.2,0-25.7,7.4-29,14.5v68c0,5.1,3.3,7,6.9,7c2.6,0,4.2-0.8,5.9-2
			c2.7-2.2,7.9-5.2,16.2-5.2s14.3,2.9,16.7,4.9c1.6,1.2,3.4,2.3,6.6,2.3c3.2,0,5-1.2,6.6-2.3c2.6-1.9,8.4-4.9,16.7-4.9
			s13.5,3,16.2,5.2c1.7,1.2,3.2,2,5.8,2c3.6,0,6.9-1.9,6.9-7v-68c-3.2-7.1-14.7-14.5-29-14.5C77.6-80.9,69-76.6,64.8-71.9z
			 M59.1-4.5c-4.5-3.2-10.9-4.8-17.7-4.8c-6.7,0-13.1,1.6-17.6,4.9v-58.3c1.4-3,7.8-7.8,17.6-7.8s16.6,4.8,17.7,7.8h11.4
			c1.1-2.9,7.9-7.8,17.7-7.8s16.3,4.8,17.6,7.8v58.3C101.3-7.8,95-9.3,88.2-9.3c-6.7,0-13.2,1.6-17.7,4.8L64.8,0L59.1-4.5z"/>
		<g id="Semibold-M_2_" transform="matrix(1 0 0 1 1983.92 1126)">
			<path d="M-1888.3-1160.7c0-1.1-0.5-2.2-1.3-3l-21-20.9c-0.9-0.9-1.9-1.3-2.9-1.3c-2.4,0-4,1.7-4,3.9c0,1.2,0.5,2.2,1.2,2.9
				l7.2,7.3l8.1,7.5l-7.2-0.4h-37.5c-2.5,0-4.2,1.7-4.2,4.1s1.7,4.1,4.2,4.1h37.6l7.2-0.4l-8.1,7.4l-7.2,7.3
				c-0.8,0.8-1.2,1.7-1.2,2.9c0,2.2,1.7,3.9,4,3.9c1,0,2-0.4,2.9-1.3l20.9-21C-1888.8-1158.5-1888.3-1159.6-1888.3-1160.7z"/>
		</g>
	</g>
	<g id="Semibold-L" transform="matrix(1 0 0 1 1960.97 1556)">
		<path d="M82.3-80.4c-4.8-5.8-16.2-11.5-30-11.5c-17.9,0-32.7,9.3-36.2,17.7V14c0,5.6,3.7,7.8,7.7,7.8c3,0,4.7-0.9,6.6-2.3
			c3.4-2.9,10.5-7.2,22-7.2c11.4,0,19.5,4.2,22.5,6.9c1.8,1.3,3.9,2.6,7.6,2.6s5.7-1.4,7.5-2.6c3.1-2.6,11-6.9,22.5-6.9
			c11.4,0,18.7,4.3,21.9,7.2c1.9,1.4,3.6,2.3,6.6,2.3c4.1,0,7.7-2.2,7.7-7.8v-88.2c-3.5-8.4-18.3-17.7-36.2-17.7
			C98.5-91.9,87.1-86.2,82.3-80.4z M76,7.2c-5.7-4.4-14.5-6.6-23.7-6.6c-9.3,0-18,2.2-23.7,6.8v-77.5c1.5-3.7,10.4-10.2,23.7-10.2
			c13.2,0,22.5,6.5,23.7,10.2h12.5c1.3-3.7,10.5-10.2,23.8-10.2c13.2,0,22.2,6.5,23.7,10.2V7.3c-5.8-4.6-14.4-6.8-23.7-6.8
			s-18,2.2-23.8,6.6l-6.3,3.7L76,7.2z"/>
		<path d="M123.3-33.8c0-1.3-0.5-2.6-1.5-3.5L93.3-65.7c-1-1-2.1-1.5-3.3-1.5c-2.7,0-4.6,1.9-4.6,4.5c0,1.3,0.6,2.5,1.4,3.3l10.8,11
			L109-37.9l-9.8-0.5H46.1c-2.8,0-4.8,1.9-4.8,4.7s2,4.7,4.8,4.7h53.1l9.7-0.5L97.6-19.1l-10.9,11c-0.9,0.8-1.4,2-1.4,3.3
			c0,2.6,1.9,4.5,4.6,4.5c1.2,0,2.4-0.5,3.5-1.6l28.4-28.4C122.7-31.2,123.3-32.5,123.3-33.8z"/>
	</g>
	<g id="Semibold-S" transform="matrix(1 0 0 1 1992.12 696)">
		<path d="M51.2-63.3c-3.7-4-10.4-7.1-18.4-7.1c-11.3,0-20.2,5.9-23,11.7v53c0,4.2,2.8,5.9,5.8,5.9c2.2,0,3.5-0.7,4.9-1.7
			c2.3-1.8,6.1-3.9,12.3-3.9s10.6,2.1,12.7,3.6c1.3,1,2.9,2,5.6,2c2.7,0,4.2-1,5.6-2c2.2-1.5,6.5-3.6,12.7-3.6s10,2.1,12.3,3.9
			c1.4,1,2.7,1.7,4.9,1.7c3,0,5.8-1.6,5.8-5.9v-53c-2.8-5.9-11.8-11.7-23-11.7C61.5-70.5,54.8-67.3,51.2-63.3z M46.4-10.6
			c-3.6-2.4-8.5-3.6-13.6-3.6s-10,1.2-13.6,3.8v-45.2c1.2-2.3,5.9-6.1,13.6-6.1c7.6,0,12.6,3.8,13.6,6.1h9.5c1-2.3,6-6.1,13.6-6.1
			s12.4,3.8,13.6,6.1v45.2c-3.7-2.5-8.5-3.8-13.6-3.8s-10,1.2-13.6,3.6l-4.7,3L46.4-10.6z"/>
		<path d="M69.6-33.9c0-0.7-0.3-1.4-0.8-2L56.3-48.3c-0.6-0.5-1.2-0.8-1.8-0.8c-1.5,0-2.6,1.1-2.6,2.5c0,0.8,0.3,1.4,0.8,1.9
			l3.7,3.7l5.2,4.8l-4.4-0.3H35.5c-1.6,0-2.7,1.1-2.7,2.6s1.1,2.6,2.7,2.6h21.7l4.4-0.3l-5.2,4.7l-3.7,3.8c-0.5,0.5-0.8,1.1-0.8,1.9
			c0,1.4,1.1,2.5,2.6,2.5c0.6,0,1.3-0.3,1.9-0.8L68.8-32C69.3-32.5,69.6-33.2,69.6-33.9z"/>
	</g>
</g>
<g id="Regular-S" transform="matrix(1 0 0 1 1399.99 696)">
	<path d="M49.9-62.4c-3.5-4.1-10.6-7-18.3-7c-10.8,0-19.3,5.6-21.8,11.2v53c0,3.4,2.2,4.6,4.6,4.6c1.9,0,3-0.6,4.2-1.5
		C21-4,25-6.2,31.6-6.2S42.8-4,44.9-2.3c1.2,0.9,2.5,1.8,4.9,1.8s3.7-0.9,4.9-1.8c2.2-1.5,6.7-3.8,13.4-3.8c6.6,0,10.6,2.2,13,4.1
		c1.2,0.9,2.3,1.5,4.2,1.5c2.4,0,4.6-1.3,4.6-4.6v-53c-2.5-5.6-11-11.2-21.8-11.2C60.4-69.4,53.3-66.5,49.9-62.4z M46.3-8.6
		c-3.8-2.6-9.1-4.1-14.7-4.1s-11,1.5-14.8,4.2v-47.7c1.1-2.5,6.2-6.7,14.8-6.7c8.5,0,13.8,4.2,14.7,6.7h7c0.9-2.4,6.2-6.7,14.8-6.7
		c8.5,0,13.7,4.2,14.7,6.7v47.7c-3.8-2.7-9.1-4.2-14.7-4.2c-5.7,0-11,1.5-14.8,4.1l-3.5,2.7L46.3-8.6z"/>
	<path d="M72.3-34c0-0.7-0.3-1.3-0.9-1.8L55.5-51.7c-0.6-0.5-1.2-0.8-1.8-0.8c-1.4,0-2.4,1-2.4,2.4c0,0.6,0.2,1.3,0.7,1.7l4.2,4.5
		L65-36l-6-0.4H29.9c-1.4,0-2.5,1-2.5,2.5c0,1.4,1,2.5,2.5,2.5H59l6-0.4l-8.8,7.9l-4.3,4.4c-0.5,0.4-0.7,1.1-0.7,1.7
		c0,1.4,1,2.4,2.4,2.4c0.6,0,1.3-0.2,1.8-0.8l16-15.9C71.9-32.7,72.3-33.3,72.3-34z"/>
</g>
<g id="Regular-M" transform="matrix(1 0 0 1 1386.98 1126)">
	<path d="M62.8-69.6c-3.7-4.7-12.9-8.8-23.2-8.8c-13.5,0-24.5,7-27.1,13.5V3.3c0,3.7,2.4,5.1,5.1,5.1c2.1,0,3.4-0.6,4.7-1.7
		c2.8-2.4,8.4-5.6,17.4-5.6S55,4.2,57.5,6.4c1.3,1,2.8,2,5.5,2c2.7,0,4.2-1,5.5-2c2.6-2.1,8.8-5.3,17.8-5.3s14.6,3.3,17.4,5.6
		c1.3,1,2.5,1.7,4.6,1.7c2.7,0,5.1-1.4,5.1-5.1v-68.2c-2.7-6.5-13.7-13.5-27.2-13.5C75.8-78.5,66.6-74.3,62.8-69.6z M58.9-0.8
		c-4.6-3.5-11.7-5.4-19.3-5.4S25-4.2,20.3-0.6v-62c1.1-3,8.2-8.5,19.3-8.5s18.4,5.5,19.3,8.5h7.9c1-3,8.2-8.5,19.3-8.5
		s18.2,5.5,19.3,8.5v62c-4.7-3.7-11.7-5.6-19.3-5.6s-14.6,2-19.3,5.4L62.9,2L58.9-0.8z"/>
	<path d="M92.3-34.9c0-0.8-0.3-1.5-1-2.1l-21-21c-0.6-0.6-1.3-0.9-2.1-0.9c-1.6,0-2.8,1.1-2.8,2.7c0,0.8,0.3,1.5,0.8,2l7.1,7.3
		L84-37.2l-7.7-0.5H36.2c-1.6,0-2.8,1.2-2.8,2.8s1.1,2.8,2.8,2.8h40.1l7.6-0.5l-10.6,9.7l-7.1,7.2c-0.5,0.5-0.8,1.2-0.8,2
		c0,1.6,1.2,2.7,2.8,2.7c0.8,0,1.4-0.3,2.1-1l21-20.9C91.9-33.3,92.3-34.1,92.3-34.9z"/>
</g>
<g id="Regular-L" transform="matrix(1 0 0 1 1369.77 1556)">
	<path d="M80.1-79.2c-4-5.3-16-11.2-29.8-11.2c-17.2,0-31.4,8.8-34.2,16.4v88.8c0,4,2.6,5.6,5.5,5.6c2.3,0,3.8-0.7,5.1-1.9
		c3.2-3.1,11.1-7.9,23.5-7.9s21,4.7,23.8,7.6c1.4,1.1,3.1,2.1,6,2.1c3,0,4.6-1.1,6-2.1c3-2.8,11.4-7.6,23.8-7.6
		c12.5,0,20.4,4.8,23.5,7.9c1.4,1.1,2.8,1.9,5.1,1.9c2.9,0,5.5-1.6,5.5-5.6V-74c-2.7-7.6-17-16.4-34.2-16.4
		C96.1-90.4,84-84.6,80.1-79.2z M75.8,9.8C70,5.1,60.5,2.4,50.2,2.4S30.4,5,24.7,10v-81.4c1.1-3.8,11-10.9,25.5-10.9
		c14.6,0,24.5,7.2,25.5,10.9h8.6c1-3.7,11-10.9,25.5-10.9c14.6,0,24.4,7.2,25.5,10.9V10c-5.8-4.9-15.2-7.6-25.5-7.6S90.1,5,84.3,9.8
		L80,13.5L75.8,9.8z"/>
	<path d="M121.3-33.7c0-0.9-0.4-1.8-1.1-2.5L90.4-65.9c-0.8-0.7-1.5-1-2.4-1c-1.9,0-3.3,1.4-3.3,3.2c0,0.9,0.3,1.8,0.9,2.4
		l12.1,12.2l13.8,12.7L101-37H42.2c-1.9,0-3.3,1.4-3.3,3.3c0,2,1.4,3.3,3.3,3.3H101l10.5-0.6L97.7-18.3L85.6-6.1
		c-0.6,0.6-0.9,1.5-0.9,2.4c0,1.9,1.4,3.2,3.3,3.2c0.9,0,1.7-0.3,2.6-1.2l29.6-29.4C121-31.9,121.3-32.7,121.3-33.7z"/>
</g>
</svg>
